<svg width="50" height="50" viewBox="0 0 50 50" fill="none" xmlns="http://www.w3.org/2000/svg">
<circle cx="30.5" cy="20.5" r="15.5" fill="#FFF642"/>
<path d="M17.8554 13.4326H18.6309C18.9025 13.4326 19.123 13.2125 19.123 12.9405C19.123 12.6689 18.9029 12.4484 18.6309 12.4484H17.8554C17.5838 12.4484 17.3633 12.6685 17.3633 12.9405C17.3633 13.2125 17.5838 13.4326 17.8554 13.4326Z" fill="black"/>
<path d="M17.8554 18.5097H18.6309C18.9025 18.5097 19.123 18.2896 19.123 18.0176C19.123 17.746 18.9029 17.5255 18.6309 17.5255H17.8554C17.5838 17.5255 17.3633 17.7456 17.3633 18.0176C17.3633 18.2896 17.5838 18.5097 17.8554 18.5097Z" fill="black"/>
<path d="M13.3437 17.0292H14.1192C14.3908 17.0292 14.6113 16.8091 14.6113 16.5371C14.6113 16.2655 14.3912 16.045 14.1192 16.045H13.3437C13.0721 16.045 12.8516 16.2652 12.8516 16.5371C12.8516 16.8091 13.0721 17.0292 13.3437 17.0292Z" fill="black"/>
<path d="M13.3437 22.3164H14.1192C14.3908 22.3164 14.6113 22.0962 14.6113 21.8243C14.6113 21.5527 14.3912 21.3322 14.1192 21.3322H13.3437C13.0721 21.3322 12.8516 21.5523 12.8516 21.8243C12.8516 22.0959 13.0721 22.3164 13.3437 22.3164Z" fill="black"/>
<path d="M24.2245 14.5615H25C25.2717 14.5615 25.4921 14.3414 25.4921 14.0694C25.4921 13.7978 25.272 13.5773 25 13.5773H24.2245C23.9529 13.5773 23.7324 13.7974 23.7324 14.0694C23.7324 14.341 23.9525 14.5615 24.2245 14.5615Z" fill="black"/>
<path d="M21.2284 10.8242H22.004C22.2756 10.8242 22.4961 10.6041 22.4961 10.3321C22.4961 10.0605 22.2759 9.83997 22.004 9.83997H21.2284C20.9568 9.83997 20.7363 10.0601 20.7363 10.3321C20.7363 10.6037 20.9564 10.8242 21.2284 10.8242Z" fill="black"/>
<path d="M30.7929 20.8389C30.5213 20.8389 30.3008 21.059 30.3008 21.331C30.3008 21.6026 30.5209 21.8231 30.7929 21.8231H31.5684C31.84 21.8231 32.0605 21.603 32.0605 21.331C32.0605 21.0594 31.8404 20.8389 31.5684 20.8389H30.7929Z" fill="black"/>
<path d="M27.3964 11.3417H28.1719C28.4435 11.3417 28.664 11.1216 28.664 10.8496C28.664 10.578 28.4439 10.3575 28.1719 10.3575H27.3964C27.1248 10.3575 26.9043 10.5777 26.9043 10.8496C26.9047 11.1212 27.1248 11.3417 27.3964 11.3417Z" fill="black"/>
<path d="M24.6122 18.9961C24.3406 18.9961 24.1201 19.2162 24.1201 19.4882C24.1201 19.7598 24.3402 19.9803 24.6122 19.9803H25.3877C25.6593 19.9803 25.8798 19.7602 25.8798 19.4882C25.8798 19.2166 25.6597 18.9961 25.3877 18.9961H24.6122Z" fill="black"/>
<path d="M20.4521 22.8095H21.2276C21.4992 22.8095 21.7197 22.5894 21.7197 22.3174C21.7197 22.0458 21.4996 21.8253 21.2276 21.8253H20.4521C20.1805 21.8253 19.96 22.0454 19.96 22.3174C19.96 22.5894 20.1804 22.8095 20.4521 22.8095Z" fill="black"/>
<path d="M30.4052 16.456H31.1807C31.4523 16.456 31.6728 16.2359 31.6728 15.9639C31.6728 15.6923 31.4527 15.4718 31.1807 15.4718H30.4052C30.1336 15.4718 29.9131 15.6919 29.9131 15.9639C29.9135 16.2359 30.1336 16.456 30.4052 16.456Z" fill="black"/>
<path d="M34.9169 14.9843H35.6924C35.964 14.9843 36.1845 14.7642 36.1845 14.4922C36.1845 14.2206 35.9644 14.0001 35.6924 14.0001H34.9169C34.6453 14.0001 34.4248 14.2202 34.4248 14.4922C34.4252 14.7642 34.6453 14.9843 34.9169 14.9843Z" fill="black"/>
<path d="M35.835 20.203C35.835 20.4746 36.0551 20.6951 36.3271 20.6951H37.1026C37.3742 20.6951 37.5947 20.475 37.5947 20.203C37.5947 19.9314 37.3746 19.7109 37.1026 19.7109H36.3271C36.0555 19.7109 35.835 19.9314 35.835 20.203Z" fill="black"/>
<path d="M7.16114 33.0956V37.6779C7.16114 40.8739 9.76124 43.474 12.9572 43.474H37.0412C40.2372 43.474 42.8373 40.8739 42.8373 37.6779V33.0956C45.1025 32.9499 46.9023 31.0655 46.9023 28.7641V28.2979C46.9023 26.0004 45.1025 24.1193 42.8373 23.9736L42.8377 22.9795C42.8377 13.9066 35.4566 6.52539 26.3836 6.52539H23.6152C14.5424 6.52539 7.16113 13.9064 7.16113 22.9795V23.9732C4.896 24.119 3.09619 26 3.09619 28.2976V28.7637C3.09619 31.0655 4.89601 32.9499 7.16114 33.0956ZM37.042 42.4897H12.958C10.3045 42.4897 8.14581 40.331 8.14581 37.6775V33.1098H28.7884C29.0363 35.6134 31.1535 37.5756 33.7216 37.5756C36.2893 37.5756 38.4068 35.6133 38.6548 33.1098H41.8557V37.6775C41.8549 40.331 39.6962 42.4897 37.0431 42.4897H37.042ZM23.6152 7.50922H26.3836C34.9141 7.50922 41.8533 14.4493 41.8533 22.9789V23.9585H8.14434V22.9789C8.14434 14.4485 15.084 7.50922 23.6141 7.50922H23.6152ZM4.08009 28.2983C4.08009 26.4486 5.58839 24.9436 7.442 24.9436H42.5572C44.4108 24.9436 45.9191 26.4485 45.9191 28.2983V28.7644C45.9191 30.6179 44.4109 32.1263 42.5572 32.1263H38.1859C37.9143 32.1263 37.6939 32.3465 37.6939 32.6184C37.6939 34.8097 35.9112 36.5926 33.7197 36.5926C31.5285 36.5926 29.7456 34.8099 29.7456 32.6184C29.7456 32.3468 29.5255 32.1263 29.2535 32.1263H7.44198C5.58847 32.1263 4.08007 30.618 4.08007 28.7644L4.08009 28.2983Z" fill="black"/>
</svg>
