<svg width="153" height="135" viewBox="0 0 153 135" fill="none" xmlns="http://www.w3.org/2000/svg">
<g clip-path="url(#clip0_83_514)">
<path d="M4.25621 55.5878L5.8399 52.2686L31.2938 64.4147L29.705 67.7442C29.6887 67.7837 29.6707 67.8223 29.6501 67.8601C28.5451 69.8727 21.9642 68.7566 14.9517 65.3679C7.93919 61.9791 3.15124 57.6004 4.25621 55.5878Z" fill="#DEDEDE"/>
<path d="M31.4693 64.0512C32.4568 61.982 27.5583 57.5851 20.5283 54.2304C13.4983 50.8758 6.99892 49.8338 6.0115 51.903C5.02409 53.9722 9.92256 58.3691 16.9525 61.7238C23.9825 65.0784 30.4819 66.1204 31.4693 64.0512Z" fill="#FFF642"/>
<g style="mix-blend-mode:multiply">
<path d="M17.3181 60.4606C14.4527 59.076 11.8876 57.4528 10.0954 55.8906C9.32417 55.218 8.73051 54.5866 8.33072 54.0135C8.11282 53.7012 8.08107 53.3109 8.24408 52.9686C8.40793 52.6254 8.73308 52.4041 9.11485 52.3766C9.82862 52.326 10.7183 52.3955 11.7589 52.5825C14.1996 53.0218 17.1903 54.0538 20.1629 55.4934C23.0283 56.878 25.5934 58.5012 27.3856 60.0634C28.1568 60.736 28.7505 61.3674 29.1503 61.9405C29.3682 62.2536 29.4008 62.6457 29.2369 62.9897C29.0756 63.3294 28.7556 63.5482 28.3816 63.5765C27.6661 63.6297 26.7713 63.5602 25.7221 63.3715C23.3354 62.9425 20.4211 61.9422 17.5146 60.5559C17.4494 60.525 17.3833 60.4932 17.3181 60.4615V60.4606ZM11.668 53.0921C10.6694 52.9128 9.82261 52.8459 9.15174 52.8931C8.95871 52.9068 8.79399 53.0183 8.71077 53.1916C8.62842 53.3641 8.64472 53.5605 8.75453 53.7184C9.12943 54.2563 9.69479 54.856 10.4343 55.5011C12.1921 57.0342 14.7169 58.6299 17.542 59.9948C20.4726 61.4138 23.4169 62.4312 25.8122 62.8619C26.8176 63.0429 27.6695 63.1098 28.3421 63.0601C28.5283 63.0463 28.6879 62.9365 28.7685 62.7667C28.8517 62.5925 28.8354 62.3935 28.7248 62.2356C28.3499 61.6977 27.7845 61.0972 27.045 60.4529C25.2872 58.9207 22.7632 57.3241 19.9373 55.9592C19.8721 55.9275 19.8069 55.8966 19.7425 55.8657C16.8771 54.4982 14.0092 53.5133 11.6671 53.0921H11.668Z" fill="#FFF642"/>
</g>
<path d="M109.796 41.2412L107.863 39.2328L123.264 24.4126L125.203 26.427C125.226 26.4493 125.249 26.4724 125.27 26.4973C126.404 27.8176 123.858 32.1886 119.585 36.2602C115.312 40.3318 110.93 42.5615 109.796 41.2412H109.796Z" fill="#DEDEDE"/>
<path d="M117.532 33.8675C121.786 29.7742 124.257 25.4411 123.053 24.1892C121.848 22.9373 117.423 25.2406 113.169 29.3339C108.916 33.4271 106.444 37.7602 107.649 39.0122C108.854 40.2641 113.279 37.9607 117.532 33.8675Z" fill="#FFF642"/>
<g style="mix-blend-mode:multiply">
<path d="M116.734 33.2729C114.988 34.9372 113.153 36.3236 111.567 37.1789C110.884 37.5469 110.278 37.8 109.765 37.9304C109.486 38.0016 109.2 37.9201 109.001 37.7134C108.801 37.5057 108.731 37.2158 108.813 36.9378C108.968 36.4179 109.253 35.8054 109.664 35.1173C110.626 33.5028 112.155 31.6566 113.969 29.9313C115.716 28.267 117.55 26.8806 119.136 26.0253C119.819 25.6573 120.426 25.4042 120.938 25.2738C121.217 25.2026 121.505 25.2841 121.705 25.4917C121.903 25.6967 121.973 25.9824 121.893 26.2544C121.739 26.776 121.452 27.3928 121.039 28.086C120.099 29.6645 118.612 31.4661 116.854 33.1579C116.815 33.1956 116.774 33.2343 116.735 33.272L116.734 33.2729ZM110.001 35.3172C109.607 35.9778 109.335 36.5603 109.19 37.0493C109.148 37.19 109.184 37.3367 109.284 37.4414C109.384 37.5452 109.529 37.5864 109.669 37.5504C110.151 37.4277 110.727 37.1866 111.382 36.834C112.938 35.995 114.743 34.6301 116.465 32.9889C118.253 31.2877 119.759 29.4698 120.703 27.8861C121.099 27.2204 121.374 26.6344 121.517 26.1446C121.556 26.009 121.521 25.8666 121.423 25.7636C121.321 25.6581 121.175 25.6169 121.034 25.653C120.552 25.7757 119.976 26.0167 119.322 26.3693C117.766 27.2084 115.961 28.5733 114.239 30.2144C114.2 30.2522 114.16 30.2899 114.121 30.3277C112.387 31.9963 110.924 33.7679 110.001 35.3172Z" fill="#FFF642"/>
</g>
<path d="M96.8195 97.3898L98.4611 95.3321L114.24 107.921L112.593 109.985C112.575 110.009 112.556 110.034 112.536 110.057C111.439 111.281 107.032 109.438 102.692 105.94C98.3524 102.442 95.7234 98.6148 96.8196 97.3907L96.8195 97.3898Z" fill="#DEDEDE"/>
<path d="M104.679 103.722C109.036 107.199 113.399 108.978 114.422 107.695C115.445 106.412 112.742 102.554 108.384 99.0773C104.026 95.6005 99.6641 93.8218 98.6408 95.1044C97.6175 96.387 100.321 100.245 104.679 103.722Z" fill="#FFF642"/>
<g style="mix-blend-mode:multiply">
<path d="M105.137 102.901C103.363 101.472 101.839 99.9255 100.842 98.546C100.413 97.9521 100.101 97.4155 99.9156 96.9521C99.8144 96.699 99.8554 96.4215 100.024 96.2096C100.194 95.9968 100.457 95.8951 100.727 95.9378C101.233 96.0182 101.842 96.21 102.537 96.5098C104.167 97.2107 106.085 98.4148 107.924 99.8997C109.698 101.329 111.223 102.876 112.22 104.255C112.649 104.849 112.961 105.386 113.146 105.849C113.247 106.102 113.206 106.381 113.037 106.594C112.869 106.805 112.61 106.906 112.346 106.864C111.838 106.785 111.225 106.592 110.525 106.291C108.931 105.606 107.061 104.436 105.26 103C105.219 102.967 105.178 102.934 105.138 102.902L105.137 102.901ZM102.391 96.8501C101.724 96.563 101.145 96.3796 100.669 96.3042C100.532 96.2823 100.4 96.3341 100.314 96.441C100.229 96.5478 100.208 96.6879 100.26 96.8151C100.434 97.2506 100.731 97.7606 101.142 98.3299C102.12 99.6833 103.621 101.205 105.37 102.614C107.183 104.078 109.072 105.264 110.671 105.952C111.343 106.24 111.926 106.425 112.402 106.499C112.534 106.519 112.663 106.468 112.747 106.363C112.833 106.256 112.854 106.114 112.803 105.986C112.628 105.55 112.331 105.04 111.92 104.471C110.943 103.118 109.442 101.597 107.693 100.188C107.652 100.155 107.612 100.123 107.572 100.091C105.795 98.6737 103.956 97.523 102.391 96.8501Z" fill="#FFF642"/>
</g>
<path d="M11.8667 96.4924L10.2702 97.7664L0.499512 85.5216L2.10121 84.2433C2.11923 84.2279 2.13725 84.2124 2.15698 84.1987C3.19761 83.4618 6.21485 85.616 8.89665 89.0107C11.5785 92.4054 12.9082 95.7546 11.8676 96.4924H11.8667Z" fill="#DEDEDE"/>
<path d="M10.0976 97.9053C11.0931 97.1109 9.71249 93.7256 7.01398 90.344C4.31546 86.9625 1.32089 84.8651 0.325418 85.6595C-0.670058 86.4539 0.710527 89.8392 3.40904 93.2208C6.10756 96.6024 9.10213 98.6997 10.0976 97.9053Z" fill="#FFF642"/>
<g style="mix-blend-mode:multiply">
<path d="M6.52246 90.8888C7.618 92.276 8.50593 93.7096 9.02238 94.9244C9.24458 95.4477 9.38785 95.9075 9.44876 96.2901C9.48136 96.4986 9.40329 96.7019 9.23858 96.8332C9.073 96.9653 8.85681 96.9962 8.66035 96.9173C8.29145 96.7697 7.86422 96.5192 7.38894 96.1726C6.27624 95.361 5.03228 94.1196 3.89642 92.6792C2.80088 91.292 1.91295 89.8584 1.3965 88.6437C1.1743 88.1203 1.03103 87.6605 0.97012 87.2779C0.93752 87.0686 1.01645 86.8652 1.18116 86.7331C1.34417 86.6027 1.55692 86.571 1.75081 86.6473C2.12142 86.7949 2.55209 87.0462 3.02994 87.3946C4.11862 88.1881 5.33169 89.3952 6.44782 90.7927C6.4727 90.8244 6.49844 90.8562 6.52332 90.8879L6.52246 90.8888ZM7.55795 95.941C8.01349 96.273 8.42014 96.5115 8.76673 96.6505C8.86625 96.6908 8.97606 96.6745 9.05927 96.6084C9.14249 96.5424 9.18195 96.4403 9.1648 96.3347C9.10818 95.9753 8.97091 95.5378 8.75815 95.0367C8.25199 93.8443 7.37779 92.4347 6.29683 91.0664C5.17641 89.6457 3.95219 88.4232 2.86008 87.627C2.4011 87.2925 1.99188 87.0531 1.64443 86.9141C1.54835 86.8755 1.44197 86.8918 1.36047 86.957C1.27639 87.0239 1.23693 87.1269 1.25323 87.2333C1.30985 87.5936 1.44711 88.0303 1.65987 88.5321C2.16603 89.7246 3.04024 91.1341 4.12119 92.5025C4.14607 92.5342 4.17095 92.5651 4.19583 92.5969C5.29566 93.9755 6.48986 95.1628 7.55795 95.9418V95.941Z" fill="#FFF642"/>
</g>
<path d="M61.9854 88.1589L83.8059 65.7908L86.872 68.7821C91.2824 73.0845 89.9726 81.5794 83.9471 87.7564C77.9216 93.9333 69.4618 95.4533 65.0515 91.1509L61.9854 88.1595V88.1589Z" fill="#DEDEDE"/>
<path d="M80.8816 84.7641C86.9072 78.5873 88.2167 70.0922 83.8064 65.7898C79.3961 61.4875 70.9361 63.0071 64.9104 69.1839C58.8848 75.3608 57.5753 83.8559 61.9856 88.1583C66.3959 92.4606 74.8559 90.941 80.8816 84.7641Z" fill="#FFF642"/>
<g style="mix-blend-mode:multiply">
<path d="M82.368 67.2647C84.2196 69.0709 84.9754 71.7798 84.4962 74.8907C84.0164 78.0021 82.3591 81.1436 79.829 83.7376C77.2989 86.3309 74.199 88.0662 71.1009 88.6227C68.0022 89.1792 65.276 88.4911 63.4244 86.6842C61.5729 84.878 60.8171 82.1691 61.2962 79.0582C61.7761 75.9468 63.4334 72.8053 65.9634 70.2113C68.4935 67.618 71.5935 65.8827 74.6915 65.3262C77.7902 64.7697 80.5165 65.4578 82.368 67.2647ZM64.1911 85.8977C67.7045 89.3248 74.4673 88.1103 79.2674 83.1901C84.0675 78.2698 85.114 71.4789 81.6007 68.0518C78.0873 64.6247 71.3245 65.8393 66.5244 70.7595C61.7243 75.6797 60.6778 82.4706 64.1911 85.8977Z" fill="#FFF642"/>
</g>
<path d="M86.1444 114.145L67.1668 127.182L65.3798 124.581C62.8095 120.84 64.9731 114.888 70.214 111.287C75.4541 107.686 81.7863 107.801 84.3574 111.543L86.1444 114.144V114.145Z" fill="#DEDEDE"/>
<path d="M81.3112 127.438C86.5516 123.838 88.7159 117.886 86.1454 114.144C83.5748 110.403 77.2427 110.288 72.0023 113.888C66.7619 117.489 64.5975 123.44 67.1681 127.182C69.7387 130.924 76.0707 131.038 81.3112 127.438Z" fill="#FFF642"/>
<g style="mix-blend-mode:multiply">
<path d="M68.4174 126.323C67.3382 124.753 67.1803 122.687 67.973 120.507C68.7657 118.327 70.4138 116.294 72.6143 114.782C74.8148 113.27 77.3036 112.46 79.6225 112.503C81.9414 112.545 83.8133 113.433 84.8926 115.004C85.9718 116.575 86.1297 118.641 85.337 120.821C84.5443 123.001 82.8962 125.034 80.6957 126.546C78.4952 128.057 76.0064 128.867 73.6875 128.825C71.3686 128.783 69.4967 127.895 68.4174 126.323ZM84.226 115.462C82.1782 112.482 77.1165 112.39 72.942 115.258C68.7674 118.126 67.0371 122.884 69.0849 125.864C71.1327 128.845 76.1943 128.937 80.3689 126.069C84.5434 123.201 86.2738 118.443 84.226 115.462Z" fill="#FFF642"/>
</g>
<path d="M75.2115 55.0694L58.6062 54.4927L58.6852 52.2167C58.7989 48.943 62.608 46.4175 67.1938 46.5767C71.7791 46.7355 75.4041 49.5189 75.2909 52.7929L75.2118 55.0689L75.2115 55.0694Z" fill="#DEDEDE"/>
<path d="M66.704 60.7093C71.2894 60.8685 75.0988 58.3434 75.2124 55.0695C75.326 51.7956 71.701 49.0126 67.1156 48.8534C62.5302 48.6942 58.7209 51.2192 58.6072 54.4931C58.4936 57.7671 62.1186 60.5501 66.704 60.7093Z" fill="#FFF642"/>
<g style="mix-blend-mode:multiply">
<path d="M59.7007 54.531C59.7484 53.1565 60.543 51.8901 61.9383 50.9652C63.3335 50.0404 65.162 49.5676 67.0874 49.6346C69.0128 49.7015 70.8044 50.2993 72.1319 51.3186C73.4594 52.3379 74.1647 53.6562 74.1166 55.0312C74.069 56.4057 73.2743 57.6721 71.8791 58.5969C70.4839 59.5218 68.6553 59.9945 66.7299 59.9276C64.8045 59.8606 63.0129 59.2628 61.6854 58.2436C60.3579 57.2243 59.6526 55.906 59.7007 54.531ZM73.5333 55.011C73.6237 52.4031 70.726 50.1783 67.0733 50.0515C63.4206 49.9246 60.3753 51.9431 60.2849 54.551C60.1945 57.1589 63.0921 59.3837 66.7449 59.5106C70.3976 59.6374 73.4429 57.6189 73.5333 55.011Z" fill="#FFF642"/>
</g>
<path d="M37.4816 81.7455L44.8408 109.719L41.0066 110.728C35.4919 112.178 29.3726 107.094 27.3402 99.3682C25.3073 91.644 28.1313 84.2057 33.6465 82.7539L37.4806 81.7451L37.4816 81.7455Z" fill="#DEDEDE"/>
<path d="M51.1476 93.1037C49.1153 85.3791 42.9968 80.2934 37.4815 81.7445C31.9663 83.1955 29.1428 90.6338 31.1751 98.3584C33.2075 106.083 39.326 111.169 44.8412 109.718C50.3565 108.267 53.1799 100.828 51.1476 93.1037Z" fill="#FFF642"/>
<g style="mix-blend-mode:multiply">
<path d="M44.3562 107.876C42.0407 108.485 39.5311 107.795 37.2901 105.932C35.0491 104.07 33.3446 101.258 32.4914 98.0144C31.6383 94.7708 31.7372 91.4843 32.7713 88.7603C33.8054 86.0363 35.65 84.1999 37.9664 83.591C40.2819 82.9818 42.7915 83.6721 45.0325 85.5348C47.2735 87.3975 48.978 90.2092 49.8312 93.4528C50.6843 96.6963 50.5854 99.9828 49.5513 102.707C48.5172 105.431 46.6726 107.267 44.3562 107.876ZM38.2251 84.5737C33.8319 85.7298 31.5746 91.6756 33.1935 97.829C34.8124 103.982 39.7036 108.048 44.0968 106.892C48.4901 105.736 50.7473 99.7902 49.1284 93.6367C47.5095 87.4833 42.6184 83.4176 38.2251 84.5737Z" fill="#FFF642"/>
</g>
<path d="M142.739 93.283L128.403 70.8274L125.325 72.7928C120.897 75.6196 120.518 82.9375 124.476 89.1384C128.435 95.3394 135.233 98.0743 139.661 95.2476L142.739 93.2821V93.283Z" fill="#DEDEDE"/>
<path d="M142.74 93.2713C147.168 90.4445 147.547 83.1263 143.587 76.9258C139.628 70.7253 132.83 67.9904 128.403 70.8173C123.976 73.6442 123.596 80.9623 127.556 87.1628C131.515 93.3633 138.313 96.0982 142.74 93.2713Z" fill="#FFF642"/>
<g style="mix-blend-mode:multiply">
<path d="M136.092 72.0208C138.582 73.0228 140.869 75.008 142.531 77.6118C144.194 80.2155 145.032 83.1255 144.893 85.8056C144.754 88.4857 143.653 90.6158 141.794 91.8023C139.935 92.9888 137.54 93.0909 135.05 92.0897C132.56 91.0877 130.273 89.1025 128.611 86.4988C126.948 83.895 126.11 80.985 126.249 78.3049C126.388 75.6249 127.488 73.4947 129.348 72.3082C131.207 71.1217 133.602 71.0196 136.091 72.0208H136.092ZM141.967 77.9712C138.814 73.0314 133.379 70.8455 129.852 73.0966C126.325 75.3486 126.021 81.1986 129.175 86.1376C132.329 91.0774 137.764 93.2633 141.29 91.0122C144.817 88.7602 145.121 82.9102 141.967 77.9712Z" fill="#FFF642"/>
</g>
<path d="M137.167 39.3074L140.35 29.988L139.073 29.5514C137.235 28.9242 135.034 30.501 134.154 33.0748C133.276 35.6485 134.052 38.2428 135.89 38.8707L137.167 39.3074Z" fill="#DEDEDE"/>
<path d="M142.095 35.7905C142.974 33.2173 142.197 30.6226 140.36 29.9949C138.522 29.3672 136.32 30.9444 135.441 33.5176C134.562 36.0908 135.339 38.6856 137.177 39.3132C139.014 39.9409 141.216 38.3637 142.095 35.7905Z" fill="#FFF642"/>
<g style="mix-blend-mode:multiply">
<path d="M141.778 32.4854C142.063 33.436 142.016 34.5547 141.647 35.6348C141.278 36.7158 140.63 37.6286 139.824 38.2068C139.017 38.7842 138.148 38.9574 137.377 38.6941C136.606 38.4307 136.024 37.7624 135.739 36.8118C135.454 35.8613 135.501 34.7434 135.87 33.6625C136.239 32.5815 136.887 31.6687 137.693 31.0905C138.5 30.5131 139.369 30.3398 140.14 30.6032C140.911 30.8666 141.493 31.5349 141.778 32.4854ZM141.413 35.555C142.113 33.5055 141.492 31.4311 140.029 30.9309C138.565 30.4308 136.805 31.6919 136.105 33.7423C135.404 35.7927 136.026 37.8662 137.489 38.3664C138.953 38.8665 140.713 37.6054 141.413 35.555Z" fill="#FFF642"/>
</g>
<path d="M37.3747 43.4488L40.5575 34.1294L39.2801 33.6927C37.4425 33.0656 35.2411 34.6424 34.3617 37.2161C33.4832 39.7898 34.2596 42.3841 36.0973 43.0121L37.3747 43.4488Z" fill="#DEDEDE"/>
<path d="M42.3025 39.9319C43.1815 37.3587 42.4046 34.7639 40.5672 34.1363C38.7298 33.5086 36.5277 35.0858 35.6487 37.659C34.7697 40.2321 35.5466 42.8269 37.3841 43.4546C39.2215 44.0822 41.4235 42.5051 42.3025 39.9319Z" fill="#FFF642"/>
<g style="mix-blend-mode:multiply">
<path d="M41.9853 36.6268C42.2702 37.5774 42.2238 38.6961 41.8541 39.7762C41.4852 40.8571 40.8375 41.7699 40.031 42.3481C39.2246 42.9255 38.3556 43.0988 37.5843 42.8354C36.813 42.5721 36.2314 41.9037 35.9466 40.9532C35.6617 40.0026 35.7081 38.8848 36.0778 37.8038C36.4467 36.7229 37.0944 35.8101 37.9009 35.2318C38.7073 34.6545 39.5763 34.4812 40.3476 34.7446C41.1189 35.0079 41.7005 35.6762 41.9853 36.6268ZM41.6207 39.6964C42.3208 37.6468 41.6996 35.5724 40.2361 35.0723C38.7725 34.5721 37.0121 35.8332 36.312 37.8836C35.612 39.934 36.2331 42.0076 37.6967 42.5077C39.1603 43.0079 40.9207 41.7468 41.6207 39.6964Z" fill="#FFF642"/>
</g>
<path d="M84.3747 35.4488L87.5575 26.1294L86.2801 25.6927C84.4425 25.0656 82.2411 26.6424 81.3617 29.2161C80.4832 31.7898 81.2596 34.3841 83.0973 35.0121L84.3747 35.4488Z" fill="#DEDEDE"/>
<path d="M89.3025 31.9319C90.1815 29.3587 89.4046 26.7639 87.5672 26.1363C85.7298 25.5086 83.5277 27.0858 82.6487 29.659C81.7697 32.2321 82.5466 34.8269 84.3841 35.4546C86.2215 36.0822 88.4235 34.5051 89.3025 31.9319Z" fill="#FFF642"/>
<g style="mix-blend-mode:multiply">
<path d="M88.9853 28.6268C89.2702 29.5774 89.2238 30.6961 88.8541 31.7762C88.4852 32.8571 87.8375 33.7699 87.031 34.3481C86.2246 34.9255 85.3556 35.0988 84.5843 34.8354C83.813 34.5721 83.2314 33.9037 82.9466 32.9532C82.6617 32.0026 82.7081 30.8848 83.0778 29.8038C83.4467 28.7229 84.0944 27.8101 84.9009 27.2318C85.7073 26.6545 86.5763 26.4812 87.3476 26.7446C88.1189 27.0079 88.7005 27.6762 88.9853 28.6268ZM88.6207 31.6964C89.3208 29.6468 88.6996 27.5724 87.2361 27.0723C85.7725 26.5721 84.0121 27.8332 83.312 29.8836C82.612 31.934 83.2331 34.0076 84.6967 34.5077C86.1603 35.0079 87.9207 33.7468 88.6207 31.6964Z" fill="#FFF642"/>
</g>
<path d="M39.8473 62.9778L50.6335 70.6669L51.6879 69.1885C53.2035 67.0615 52.0185 63.6174 49.0399 61.4934C46.0609 59.3706 42.4184 59.3727 40.9017 61.4994L39.8473 62.9778Z" fill="#DEDEDE"/>
<path d="M42.4834 70.6827C45.4615 72.806 49.1049 72.8033 50.621 70.6768C52.1372 68.5502 50.952 65.105 47.9739 62.9817C44.9958 60.8585 41.3525 60.8611 39.8363 62.9877C38.3202 65.1142 39.5053 68.5594 42.4834 70.6827Z" fill="#FFF642"/>
<g style="mix-blend-mode:multiply">
<path d="M46.865 71.5461C45.5302 71.5473 44.1062 71.0571 42.8564 70.1648C41.6052 69.2733 40.6781 68.0871 40.2432 66.8252C39.8095 65.5636 39.9206 64.3769 40.5569 63.4842C41.1932 62.5916 42.2784 62.0991 43.6132 62.0979C44.9479 62.0966 46.3708 62.5866 47.6217 63.4792C48.8729 64.3707 49.8001 65.5569 50.2349 66.8188C50.6687 68.0804 50.5575 69.2671 49.9212 70.1598C49.2849 71.0524 48.1997 71.5449 46.865 71.5461ZM43.0491 69.8947C45.4212 71.5858 48.3338 71.5837 49.5418 69.8899C50.7497 68.1961 49.8019 65.4418 47.4287 63.7504C45.0555 62.0589 42.144 62.0614 40.936 63.7552C39.7281 65.449 40.6759 68.2033 43.0491 69.8947Z" fill="#FFF642"/>
</g>
<path d="M61.0878 27.2453C56.2424 29.94 50.3975 28.6763 48.0323 24.4236L46.8218 22.2472L64.3693 12.4902L65.5798 14.6667C67.9442 18.9194 65.9333 24.5515 61.0878 27.2453Z" fill="#DEDEDE"/>
<path d="M59.8774 25.0653C64.7226 22.3707 66.7331 16.7389 64.3681 12.4863C62.0031 8.23375 56.1581 6.97071 51.3129 9.66527C46.4678 12.3598 44.4573 17.9916 46.8223 22.2442C49.1873 26.4968 55.0323 27.7598 59.8774 25.0653Z" fill="#FFF642"/>
<g style="mix-blend-mode:multiply">
<path d="M48.6729 21.2185C46.8001 17.8513 48.3821 13.3842 52.1997 11.2617C56.0174 9.13928 60.6458 10.1525 62.5186 13.5197C64.3914 16.887 62.8094 21.3541 58.9917 23.4765C55.1741 25.599 50.5457 24.5867 48.6729 21.2185ZM62.0064 13.8046C60.2914 10.7195 56.0199 9.80931 52.4854 11.7739C48.9508 13.7394 47.471 17.8478 49.1859 20.9329C50.9009 24.0179 55.1723 24.9281 58.7069 22.9635C62.2415 20.9981 63.7213 16.8896 62.0064 13.8046Z" fill="#FFF642"/>
</g>
<path d="M116.087 55.5007C120.103 61.1473 119.339 68.5812 114.384 72.1056L111.847 73.9093L97.3081 53.4601L99.8445 51.6564C104.8 48.1331 112.073 49.8539 116.087 55.5007Z" fill="#DEDEDE"/>
<path d="M113.547 57.3046C109.532 51.6583 102.26 49.9379 97.3038 53.462C92.3481 56.9861 91.5855 64.4201 95.6006 70.0663C99.6157 75.7126 106.888 77.433 111.844 73.9089C116.8 70.3848 117.562 62.9508 113.547 57.3046Z" fill="#FFF642"/>
<g style="mix-blend-mode:multiply">
<path d="M110.315 71.7518C106.391 74.5424 100.624 73.1937 97.4611 68.7447C94.2984 64.2957 94.9184 58.4072 98.8424 55.6167C102.766 52.8261 108.533 54.1748 111.696 58.6238C114.859 63.0728 114.24 68.9611 110.315 71.7518ZM99.2668 56.2135C95.6716 58.7691 95.1302 64.2001 98.0579 68.3192C100.987 72.4382 106.294 73.7096 109.889 71.154C113.484 68.5984 114.026 63.1675 111.098 59.0483C108.169 54.9293 102.862 53.6579 99.2668 56.2135Z" fill="#FFF642"/>
</g>
</g>
<defs>
<clipPath id="clip0_83_514">
<rect width="152.75" height="134.38" fill="white"/>
</clipPath>
</defs>
</svg>
