<?xml version="1.0" encoding="UTF-8"?>
<svg id="Layer_1" xmlns="http://www.w3.org/2000/svg" version="1.1" viewBox="0 0 514 514">
  <!-- Generator: Adobe Illustrator 29.0.1, SVG Export Plug-In . SVG Version: 2.1.0 Build 192)  -->
  <defs>
    <style>
      .st0 {
        fill: #DEDEDE;
      }
    </style>
  </defs>
  <path class="st0" d="M466.248,355.301h-9.336c-2.132-50.83-23.194-98.295-59.628-134.12-32.711-32.163-74.608-51.763-119.669-56.355,4.754-5.063,7.674-11.866,7.674-19.342,0-15.598-12.69-28.287-28.288-28.287s-28.288,12.689-28.288,28.287c0,7.476,2.921,14.279,7.674,19.342-45.063,4.593-86.96,24.193-119.668,56.355-36.433,35.824-57.493,83.289-59.625,134.12h-9.34c-11.442,0-20.752,9.31-20.752,20.752s9.31,20.751,20.752,20.751h418.496c11.442,0,20.752-9.309,20.752-20.751s-9.31-20.752-20.752-20.752ZM257,127.196c10.084,0,18.288,8.203,18.288,18.287s-8.204,18.288-18.288,18.288-18.288-8.204-18.288-18.288,8.204-18.287,18.288-18.287ZM123.729,228.311c35.768-35.17,83.099-54.539,133.273-54.539s97.501,19.369,133.27,54.539c34.512,33.935,54.501,78.862,56.627,126.99H67.105c2.125-48.129,22.113-93.056,56.623-126.99ZM466.248,386.804H47.752c-5.929,0-10.752-4.823-10.752-10.751s4.823-10.752,10.752-10.752h418.496c5.929,0,10.752,4.823,10.752,10.752s-4.823,10.751-10.752,10.751Z"/>
  <path class="st0" d="M93.883,308.953l9.479,3.189c14.788-43.944,47.795-79.521,90.557-97.607l-3.896-9.211c-45.396,19.202-80.438,56.973-96.139,103.629Z"/>
</svg>