<svg width="100" height="100" viewBox="0 0 100 100" fill="none" xmlns="http://www.w3.org/2000/svg">
<circle cx="65.5" cy="50.5" r="34.5" fill="#FFF642"/>
<path d="M66.281 11.4584C66.5977 12.0646 66.8248 12.7334 66.9435 13.448C67.5519 17.1605 64.9873 20.7646 61.2144 21.498" stroke="black" stroke-width="2.08333" stroke-linecap="round" stroke-linejoin="round"/>
<path d="M61.476 21.4707C60.7737 21.5257 60.0846 21.6916 59.4343 21.9624C55.9635 23.4103 54.2635 27.4936 55.6385 31.0832M86.9593 37.6061C86.826 38.277 86.5843 38.9395 86.2281 39.5707C84.3739 42.8457 80.1156 44.0436 76.7176 42.2478" stroke="black" stroke-width="2.08333" stroke-linecap="round" stroke-linejoin="round"/>
<path d="M76.9349 42.3894C76.3542 41.9926 75.7143 41.6903 75.0391 41.4935C71.4245 40.4414 67.5391 42.556 66.3599 46.2144M71.9182 63.1769L72.1474 63.4039L42.5932 75.9727L13.0391 88.5414L25.6078 58.9873L38.1766 29.4331" stroke="black" stroke-width="2.08333" stroke-linecap="round" stroke-linejoin="round"/>
<path d="M38.3256 29.581L55.1632 46.4185L71.9194 63.1769M38.1777 29.4331L38.3236 29.5789" stroke="black" stroke-width="2.08333" stroke-linecap="round" stroke-linejoin="round"/>
</svg>
