<svg width="50" height="50" viewBox="0 0 50 50" fill="none" xmlns="http://www.w3.org/2000/svg">
<circle cx="31.5" cy="20.5" r="15.5" fill="#FFF642"/>
<path d="M29.077 17.3113H20.1327C19.1903 17.3113 18.4233 18.0783 18.4233 19.0206C18.4233 19.9629 19.1903 20.7299 20.1327 20.7299H29.077C30.0194 20.7299 30.7864 19.9629 30.7864 19.0206C30.7864 18.0783 30.0194 17.3113 29.077 17.3113ZM29.077 20.0108H20.1327C19.5867 20.0108 19.1426 19.5667 19.1426 19.0207C19.1426 18.4748 19.5867 18.0306 20.1327 18.0306H29.077C29.623 18.0306 30.0671 18.4748 30.0671 19.0207C30.0666 19.5667 29.623 20.0108 29.077 20.0108Z" fill="black"/>
<path d="M24.6489 40.9261C28.4939 40.9261 31.6216 37.7979 31.6216 33.9535C31.6216 30.1085 28.4934 26.9808 24.6489 26.9808C20.804 26.9808 17.6763 30.109 17.6763 33.9535C17.6763 37.7984 20.804 40.9261 24.6489 40.9261ZM24.6489 27.7001C28.097 27.7001 30.9023 30.5054 30.9023 33.9535C30.9023 37.4015 28.097 40.2068 24.6489 40.2068C21.2009 40.2068 18.3956 37.4015 18.3956 33.9535C18.3956 30.5049 21.2009 27.7001 24.6489 27.7001Z" fill="black"/>
<path d="M39.4297 6.04126C39.536 5.87335 39.4853 5.65129 39.3174 5.54449C39.1495 5.43868 38.9275 5.48886 38.8207 5.65676L31.9846 16.4918L31.0368 15.544L34.3487 0.437052C34.391 0.242821 34.2688 0.050561 34.0745 0.00833948C33.8818 -0.0338859 33.689 0.0883206 33.6458 0.282551L30.4327 14.9393L28.6786 13.1852L28.6781 13.1847C28.6612 13.1678 28.6428 13.1534 28.6229 13.14C28.6145 13.134 28.6055 13.1305 28.5966 13.1261C28.5852 13.1196 28.5737 13.1126 28.5608 13.1077C28.5494 13.1032 28.537 13.1002 28.5255 13.0967C28.5146 13.0938 28.5042 13.0898 28.4938 13.0873C28.4714 13.0828 28.4481 13.0803 28.4252 13.0803H28.4232H28.4207L20.8698 13.133C20.8629 13.133 20.8569 13.135 20.8499 13.135C20.8331 13.1365 20.8167 13.137 20.8008 13.14C20.7898 13.1419 20.7794 13.1464 20.7695 13.1494C20.7571 13.1534 20.7456 13.1559 20.7342 13.1608C20.7228 13.1658 20.7119 13.1723 20.7004 13.1787C20.691 13.1837 20.6811 13.1881 20.6721 13.1941C20.6567 13.2045 20.6433 13.2165 20.6299 13.2289C20.6259 13.2319 20.6224 13.2348 20.6185 13.2383L20.617 13.2398L20.6165 13.2403L14.1048 19.7515C14.0879 19.7683 14.073 19.7867 14.0601 19.8066C14.0541 19.8155 14.0507 19.825 14.0452 19.8339C14.0387 19.8453 14.0318 19.8563 14.0273 19.8687C14.0224 19.8801 14.0199 19.893 14.0159 19.9055C14.0129 19.9159 14.0089 19.9253 14.007 19.9363C14.0025 19.9591 14 19.9829 14 20.0068V23.8627C14 23.8677 14.0015 23.8716 14.0015 23.8766C14.0015 23.8811 14.001 23.8855 14.001 23.89L15.8008 47.487C15.8147 47.6748 15.9711 47.8194 16.1594 47.8194H33.1396C33.3279 47.8194 33.4843 47.6748 33.4983 47.487L35.298 23.89C35.2995 23.8716 35.298 23.8532 35.2965 23.8354C35.297 23.8269 35.299 23.8185 35.299 23.8105V19.9541C35.299 19.9303 35.2965 19.9069 35.292 19.8836C35.2901 19.8726 35.2856 19.8632 35.2831 19.8528C35.2791 19.8404 35.2766 19.8284 35.2717 19.816C35.2667 19.8036 35.2593 19.7932 35.2538 19.7812C35.2488 19.7723 35.2449 19.7629 35.2389 19.7539C35.2255 19.7341 35.2106 19.7157 35.1942 19.6988L32.5082 17.0128L39.4297 6.04126ZM34.5773 23.5021H14.7192V20.1549L21.0232 13.851L28.2755 13.8003L31.7975 17.3224C31.798 17.3229 31.799 17.3239 31.7995 17.3243L34.5775 20.1023L34.5773 23.5021ZM16.492 47.0991L16.3116 44.7335H32.9853L32.8045 47.0991H16.492ZM33.0398 44.0142H16.2567L14.747 24.2222H34.5492L33.0398 44.0142Z" fill="black"/>
</svg>
