<svg width="111" height="51" viewBox="0 0 111 51" fill="none" xmlns="http://www.w3.org/2000/svg">
<g clip-path="url(#clip0_94_5499)">
<path d="M103.468 26.8892C103.986 26.4505 104.548 26.2101 104.39 26.4208C105.364 25.4244 105.525 25.5855 105.446 25.1865C106.045 24.5074 106.95 24.1381 106.231 24.8593C106.871 24.2918 107.51 23.7217 108.157 23.164C107.731 23.4441 107.312 23.7366 106.891 24.0241C107.044 23.5284 108.918 22.656 109.111 22.0884C108.368 22.6386 107.617 23.1814 106.883 23.744L106.935 23.5804C106.487 24.039 105.48 24.7404 105.116 24.9684C105.141 24.8891 105.056 24.8494 105.443 24.547C104.097 25.5484 104.008 25.8012 103.973 26.0094C103.944 26.2225 103.971 26.3935 102.917 27.2957C103.049 27.1817 103.22 27.0503 103.47 26.8892H103.468Z" fill="#FFF75A"/>
<path d="M100.791 28.0987C100.568 28.4432 100.345 28.7853 100.127 29.1323C99.606 29.5288 99.0806 29.9179 98.5651 30.3195C98.632 30.4335 97.6183 31.4422 98.4263 30.8994C98.5551 30.7606 98.8154 30.488 99.0509 30.3021C99.0657 30.6565 97.1697 32.104 97.7943 31.9454C98.9145 30.8821 99.1302 30.7706 99.7151 29.9849C100.816 29.0901 101.663 28.4953 102.238 28.1557C102.541 27.8608 102.479 27.6898 102.875 27.3279C102.786 27.4048 102.702 27.4742 102.598 27.5634L102.288 27.2684C101.993 27.6154 101.638 27.8484 101.259 28.1706C101.745 27.5559 102.246 26.9561 102.741 26.3464C101.911 26.4951 100.293 28.0987 99.497 28.5548C100.588 28.1111 98.9195 29.2562 100.791 28.0938V28.0987Z" fill="#FFF75A"/>
<path d="M102.873 27.3329C102.873 27.3329 102.902 27.3081 102.917 27.2982C102.905 27.3081 102.885 27.3255 102.873 27.3329Z" fill="#FFF75A"/>
<path d="M41.6388 20.2741C41.9239 19.8924 41.9313 19.7214 41.9338 19.6346C40.8482 21.0499 39.7106 22.4403 38.5605 23.8357C38.7563 23.7762 39.8518 22.6584 39.2421 23.5061C39.6337 23.226 40.4467 22.0636 40.4591 21.8108L40.3451 22.2222C40.9597 21.1217 41.8148 20.7202 41.4133 21.434L41.4777 21.3498C41.9759 20.2766 42.4543 19.2009 42.8979 18.1252C42.1147 19.0968 42.5584 19.072 41.6413 20.2741H41.6388Z" fill="#FFF75A"/>
<path d="M6.20898 13.6267C6.6799 13.1063 6.7146 13.0195 6.62785 13.0443C6.46923 13.2426 6.32547 13.4359 6.20898 13.6267Z" fill="#FFF75A"/>
<path d="M43.1978 17.3718C43.3291 17.0372 43.4555 16.705 43.572 16.3729C43.4035 16.7521 43.2696 17.1041 43.1978 17.3718Z" fill="#FFF75A"/>
<path d="M41.7036 25.7342C41.7036 25.7342 41.716 25.7615 41.7482 25.7516L41.9564 25.2881C41.9564 25.2881 41.9515 25.2955 41.949 25.298C41.8573 25.4566 41.7755 25.6004 41.7036 25.7367V25.7342Z" fill="#FFF75A"/>
<path d="M39.7775 9.12097C39.6883 9.18293 39.6115 9.23498 39.5049 9.30934C39.6065 9.2449 39.6957 9.18293 39.7775 9.12097Z" fill="#FFF75A"/>
<path d="M34.0942 38.0325C34.4437 37.3608 34.8105 36.6842 35.1972 36.0051C35.1104 36.3273 35.74 35.3954 35.564 35.8737C35.6532 35.7176 36.1093 35.0137 35.9258 35.1624L35.6507 35.554C35.8738 34.9542 35.8515 34.7807 35.8986 34.5354C35.9432 34.29 36.0622 33.9603 36.5826 33.0458C35.6408 33.9628 35.4525 34.5354 35.1823 35.1723C35.0658 35.3731 34.9617 35.5342 34.8601 35.6978C34.6122 36.3174 34.3768 36.9345 34.1537 37.5492L34.0942 38.0325Z" fill="#FFF75A"/>
<path d="M16.814 17.8056H16.8437C16.8437 17.8056 16.8264 17.7981 16.814 17.8056Z" fill="#FFF75A"/>
<path d="M16.9704 17.7981L16.844 17.8055C16.8737 17.8501 16.7696 18.0881 16.9704 17.7981Z" fill="#FFF75A"/>
<path d="M43.1558 17.8178C43.1236 17.7534 43.1409 17.5972 43.1979 17.3717C43.1037 17.622 42.9947 17.8724 42.8931 18.1252C42.9625 18.0359 43.0616 17.9244 43.1533 17.8178H43.1558Z" fill="#FFF75A"/>
<path d="M42.6801 19.7264C42.2836 20.2691 41.8821 20.8119 41.4756 21.3498L41.1484 22.0437C41.5847 21.3969 42.1101 20.6558 42.6801 19.7239V19.7264Z" fill="#FFF75A"/>
<path d="M42.4546 7.91639C41.6094 8.35509 41.2228 8.51867 41.1038 8.55089C40.9823 8.57815 41.1137 8.4344 41.307 8.26834C41.6937 7.94118 42.3158 7.47522 41.4979 7.82717C41.022 8.07997 40.737 8.32782 40.4916 8.52858C40.2462 8.7343 40.048 8.91275 39.7778 9.12094C40.095 8.8954 40.3404 8.76156 40.5213 8.66738C40.7023 8.57319 40.8237 8.5261 40.903 8.51123C41.0617 8.48149 41.0542 8.57815 41.0517 8.67729C41.0468 8.77643 41.0468 8.87309 41.2079 8.85078C41.369 8.82104 41.6986 8.69216 42.3604 8.33526C42.1225 8.83344 40.6155 9.6439 39.6935 10.1371C38.5162 10.4692 40.4296 9.38118 40.509 8.97967C39.468 9.64638 39.6935 9.60673 39.3441 10.0305C37.6512 11.0046 36.2831 12.7048 35.0612 13.1014C33.9856 14.1002 34.1665 14.1597 33.646 14.8537C33.703 15.047 34.1417 14.7149 34.6473 14.3382C35.1504 13.9614 35.7155 13.5252 36.013 13.4757C35.9089 13.5203 35.7031 13.607 35.718 13.5302C36.0576 13.2947 36.3922 13.0469 36.7317 12.8189C36.2335 13.1262 36.2088 13.0394 36.3699 12.8065C36.531 12.5809 36.8804 12.2364 37.1208 12.0332C37.4753 11.7457 38.2015 11.2277 38.1569 11.3764L37.6488 11.8349C38.4221 11.4185 39.0764 10.5039 39.9587 10.1991C40.0405 10.2437 39.7704 10.4544 39.753 10.5238C40.1198 10.1644 40.5089 9.83227 40.9724 9.53237C41.2029 9.3787 41.4458 9.21017 41.7135 9.04163C41.9812 8.87805 42.2687 8.6996 42.5834 8.49388L41.9787 9.1953C42.1968 8.98214 42.5091 8.73677 42.8957 8.51371C43.0891 8.40713 43.2997 8.29808 43.5203 8.1915C43.6319 8.13946 43.7434 8.08493 43.8599 8.03288C43.9739 7.99075 44.0879 7.94613 44.2044 7.90152C44.2193 7.89656 44.3283 7.87674 44.3853 7.90152C44.4498 7.92135 44.4993 7.97092 44.5142 8.0428C44.5291 7.97092 44.4944 7.91887 44.5489 7.84452C44.6456 7.80486 44.6926 7.89656 44.6604 7.99075C44.6307 8.08741 44.5439 8.17911 44.4646 8.25842C44.596 8.13698 44.591 8.29064 44.539 8.35261L44.5068 8.40218C44.5068 8.40218 44.5068 8.40713 44.5068 8.41209V8.47901V8.62524C44.5117 8.7219 44.4944 8.81856 44.4944 8.91275C44.4919 9.00693 44.4894 9.09863 44.4944 9.19034C44.4894 9.28204 44.4869 9.36879 44.4869 9.45554C44.4869 9.54229 44.4919 9.62408 44.5018 9.70587C44.5068 9.78766 44.5092 9.86449 44.5216 9.93884C44.8364 11.7729 44.4101 14.0755 43.5848 16.3755C43.7013 16.1301 43.8153 15.8699 43.9615 15.6171C44.5588 15.2428 44.7174 14.9157 44.3704 16.0384C44.6034 15.5204 44.591 15.3172 44.6431 15.0693C44.6803 14.819 44.7893 14.5241 45.1462 13.8028C45.0719 14.1176 45.0942 14.358 45.2305 14.3456C45.3643 14.3332 45.627 14.0655 45.9716 13.3567C46.6234 11.4904 46.6184 9.86697 46.2888 8.46662C46.2665 8.36252 46.2467 8.33278 46.2268 8.27577C46.2095 8.2262 46.1847 8.17911 46.1599 8.1345C46.1104 8.04527 46.0657 7.961 46.0162 7.88417C45.9145 7.7305 45.803 7.60162 45.6816 7.49753C45.4436 7.29181 45.1413 7.18276 44.8339 7.25216C44.8785 7.11088 44.648 7.01918 44.3581 7.09353C44.2862 7.1084 44.2118 7.13071 44.1375 7.15549C44.0705 7.1778 44.0036 7.20011 43.9367 7.22241C43.8301 7.26207 43.7236 7.29925 43.6219 7.33642C43.5203 7.37856 43.4212 7.42069 43.3245 7.46035C43.1312 7.53718 42.9527 7.61154 42.7941 7.67598C42.9825 7.45787 43.2973 7.20754 43.6988 6.99439L43.7756 6.95474C43.7979 6.94234 43.8376 6.92499 43.8376 6.92004L43.8946 6.8779C43.9342 6.85064 43.9714 6.82585 44.0235 6.79611C44.1226 6.73663 44.2316 6.6821 44.3457 6.63501C44.2069 6.66475 43.9962 6.74159 43.8252 6.80107C43.731 6.83577 43.6343 6.87047 43.5401 6.90517C43.4261 6.94234 43.3171 6.99687 43.2056 7.04148C42.985 7.13567 42.7718 7.22489 42.5735 7.30916L42.4694 7.91143L42.4546 7.91639Z" fill="#FFF75A"/>
<path d="M46.333 8.05008C46.3504 7.99308 46.3578 7.93607 46.3652 7.87659C46.3479 7.91129 46.3355 7.96333 46.333 8.05008Z" fill="#FFF75A"/>
<path d="M44.4718 6.60762C44.4718 6.60762 44.4768 6.58779 44.4793 6.57788C44.4297 6.59523 44.3801 6.61754 44.3306 6.63736C44.3801 6.62497 44.4347 6.61258 44.4694 6.60762H44.4718Z" fill="#FFF75A"/>
<path d="M44.1645 17.3421C44.0803 17.585 43.9886 17.7436 43.9043 17.9865C43.9737 17.8477 44.0679 17.6816 44.1571 17.5181C44.2315 17.357 44.2488 17.2677 44.1645 17.3421Z" fill="#FFF75A"/>
<path d="M43.3392 17.7733L43.3342 17.6097C43.2648 17.6915 43.2177 17.7485 43.1558 17.8179C43.183 17.8725 43.2376 17.8749 43.3392 17.7733Z" fill="#FFF75A"/>
<path d="M28.8056 15.3468L28.5479 15.6616C28.7213 15.493 28.7833 15.4063 28.8056 15.3468Z" fill="#FFF75A"/>
<path d="M38.5011 9.67851C39.0637 9.28443 39.0587 9.20512 39.1058 9.06632C39.1579 8.93992 39.262 8.75155 40.1047 8.26824C39.9336 8.35251 39.7651 8.43678 39.5991 8.53344C40.1617 8.1121 40.9944 7.62631 41.8867 7.19506C42.3304 6.97695 42.7963 6.79354 43.235 6.59774C43.5374 6.48373 43.8274 6.37219 44.0876 6.27553C44.0504 6.36724 44.1818 6.36476 44.3032 6.38459C44.4272 6.40441 44.5337 6.44655 44.4792 6.58039C44.7246 6.49116 44.9923 6.44407 45.2376 6.46886C45.483 6.48868 45.6887 6.56304 45.8746 6.57791C45.9613 6.75636 46.1001 6.92986 46.2067 7.14796C46.3133 7.36359 46.3926 7.62631 46.3629 7.87912C46.4199 7.75767 46.5488 7.90143 46.6281 7.94604C46.6677 7.96587 46.6975 7.95595 46.6975 7.85681C46.6975 7.75767 46.6776 7.56435 46.5636 7.25702C46.6058 7.35368 46.6181 7.27189 46.6603 7.37103C46.6628 6.89268 46.5041 6.5903 46.3009 6.39202C46.0952 6.19126 45.8449 6.06734 45.5078 5.94341C45.3318 5.81205 45.5301 5.78479 45.7308 5.82445C45.9266 5.86162 46.1076 5.96572 45.944 5.79966C45.716 5.69061 45.4012 5.59395 45.0641 5.60882C44.7271 5.61873 44.3801 5.71044 44.0752 5.81949C43.924 5.8765 43.7778 5.93846 43.6613 5.99298C43.6018 6.02025 43.5448 6.04999 43.4952 6.07725C43.4259 6.11195 43.3391 6.15409 43.2722 6.19126C42.9971 6.34493 42.8632 6.4986 42.9351 6.60269C42.4444 6.84063 42.1494 6.94225 41.9412 7.00421C41.733 7.06865 41.6042 7.07609 41.4356 7.10831C40.7639 7.71058 39.3438 8.45909 38.1417 9.20264C37.8443 9.391 37.5518 9.5645 37.299 9.74543C37.0437 9.92388 36.8182 10.0924 36.6323 10.2436C36.263 10.541 36.0796 10.7988 36.1837 10.9301C36.4291 10.7195 36.7711 10.4716 37.1354 10.1916C37.4973 9.90405 37.8914 9.60663 38.2408 9.28443L38.4961 9.68099L38.5011 9.67851Z" fill="#FFF75A"/>
<path d="M45.4087 15.3121C45.4533 15.2378 45.5078 15.1361 45.5475 15.0767C45.5054 15.1461 45.4558 15.2328 45.4087 15.3121Z" fill="#FFF75A"/>
<path d="M32.6221 28.6316L32.6568 27.8558C33.7276 26.401 34.5008 25.4715 35.2419 24.5966C35.9805 23.7242 36.6968 22.9088 37.6485 21.7389C37.8419 21.6001 37.6386 21.9074 37.537 22.0636C38.1938 21.2259 39.034 20.2171 39.785 19.2455C40.5385 18.2764 41.2027 17.347 41.5522 16.6853C41.9462 16.1697 42.9451 14.9131 42.722 15.4906C42.8484 15.218 43.007 14.9131 43.1855 14.6331C43.2772 14.6355 43.1904 14.8041 43.0913 14.98C42.9872 15.156 42.8732 15.3444 42.9228 15.389C43.0789 15.1659 43.1632 15.0941 43.1533 15.0123C43.0888 15.2428 43.2673 15.2155 43.3169 15.3543C43.3639 15.4931 43.2995 15.8079 42.6576 16.7175C42.2536 16.9604 42.4717 16.6382 42.7022 16.2813C42.9277 15.9219 43.1657 15.5253 42.8559 15.617C42.4494 16.2119 42.6278 16.2342 42.6353 16.3135C42.09 17.0719 42.0082 16.9951 41.9636 16.8984C41.8521 17.2727 40.9871 18.1401 40.826 18.6656C39.6908 20.1824 40.6475 18.3929 39.8866 19.3719L39.7701 20.1948L38.3946 21.7662C36.5679 24.2124 39.2397 21.8876 37.1875 24.7379C37.3139 24.2422 36.1292 25.0874 35.0139 26.3167C35.6261 25.536 36.5778 23.9596 37.475 23.0723C36.0945 24.2248 38.9944 21.1713 38.117 21.6398C37.7055 22.423 36.791 23.5631 35.983 24.3884L36.1937 24.0736C35.3807 24.9882 35.1254 25.9796 33.9234 27.2114C33.4029 27.888 33.4103 27.6898 33.4252 27.5113C33.0237 28.1161 32.694 28.6861 32.6172 28.6291L32.6221 28.6316ZM33.7052 27.1073L34.4513 26.2473C34.2282 26.4133 33.963 26.7479 33.7052 27.1073Z" fill="#FFF75A"/>
<path d="M89.1343 38.7612C89.221 38.6893 89.3202 38.6051 89.3995 38.5431C89.3326 38.5827 89.2334 38.667 89.1343 38.7612Z" fill="#FFF75A"/>
<path d="M42.8062 36.3075L43.2696 35.8663C43.0813 36.0324 42.935 36.1761 42.8062 36.3075Z" fill="#FFF75A"/>
<path d="M51.6523 24.9535L52.2026 24.1876C51.9622 24.4702 51.7986 24.7106 51.6523 24.9535Z" fill="#FFF75A"/>
<path d="M84.9281 42.6326H84.9133C84.886 42.6524 84.8662 42.6722 84.8364 42.6896L84.9281 42.6326Z" fill="#FFF75A"/>
<path d="M75.5396 6.51842C75.7007 6.49859 75.8816 6.47876 76.1195 6.42671C76.0799 6.39697 75.8618 6.43167 75.5396 6.51842Z" fill="#FFF75A"/>
<path d="M51.5503 25.0948C51.5676 25.0799 51.58 25.07 51.5949 25.0576C51.6123 25.0254 51.6321 24.9882 51.6519 24.9535L51.5503 25.0948Z" fill="#FFF75A"/>
<path d="M37.3241 39.9211C37.2299 40.0401 37.1382 40.1467 37.0415 40.2731C37.1803 40.1169 37.2621 40.0104 37.3241 39.9211Z" fill="#FFF75A"/>
<path d="M38.8754 40.0624C38.7663 40.1838 38.6622 40.3003 38.5879 40.397L38.8754 40.0624Z" fill="#FFF75A"/>
<path d="M30.6147 42.4591C30.704 42.2212 30.7783 41.9808 30.8775 41.7404C30.7188 42.0849 30.6569 42.298 30.6147 42.4591Z" fill="#FFF75A"/>
<path d="M36.9793 41.6139C36.9595 41.6635 36.9372 41.7155 36.9272 41.7527C37.0016 41.6536 37.0214 41.5941 36.9793 41.6139Z" fill="#FFF75A"/>
<path d="M94.0045 35.7721C93.9896 35.787 93.9747 35.8019 93.9673 35.8093L93.9846 35.8589L94.0045 35.7697V35.7721Z" fill="#FFF75A"/>
<path d="M95.1519 33.8786C95.3303 33.7026 95.5187 33.5167 95.7021 33.3358C95.4865 33.5267 95.2882 33.7225 95.1519 33.8786Z" fill="#FFF75A"/>
<path d="M86.0608 13.6293C85.979 13.8697 85.8576 14.4323 85.813 14.1597C85.8502 14.6281 86.0782 14.6256 86.0608 13.6293Z" fill="#FFF75A"/>
<path d="M92.7899 40.5978C92.847 40.4614 92.9362 40.3102 93.0279 40.1591C92.8445 40.4267 92.6834 40.6597 92.7899 40.5978Z" fill="#FFF75A"/>
<path d="M93.0278 40.1591C93.1171 40.0253 93.2137 39.884 93.293 39.765C93.1939 39.8989 93.1047 40.0302 93.0278 40.1591Z" fill="#FFF75A"/>
<path d="M81.8325 9.69342C81.8226 9.64881 81.7904 9.60172 81.7284 9.56702C81.7136 9.63394 81.7582 9.66368 81.8325 9.69342Z" fill="#FFF75A"/>
<path d="M96.2105 32.9715C96.2427 32.8029 98.6221 30.4236 96.4682 32.2502C96.3443 31.9454 97.7348 30.9416 98.2602 30.3988C97.7967 30.7012 98.337 30.0691 98.1388 30.0939C97.8785 30.369 97.5984 30.7235 97.1176 31.1126C96.8078 31.1919 97.4547 30.5004 98.0495 30.0642C97.2539 30.5301 98.7609 29.1273 97.705 29.8659C95.695 31.7372 94.3367 33.1301 93.2388 34.7708C94.3293 33.658 95.5562 32.4113 96.6021 31.6653L96.3765 32.2229C95.1423 33.0037 94.5995 33.7373 93.5436 34.6816L94.763 33.653L95.9949 32.6393C97.2614 31.8214 96.5426 32.5129 95.7049 33.3383C95.9205 33.1474 96.1262 32.9838 96.213 32.9715H96.2105Z" fill="#FFF75A"/>
<path d="M96.2275 36.1514L96.2722 36.1216C96.2994 36.0845 96.3366 36.0398 96.3515 36.0126L96.23 36.1514H96.2275Z" fill="#FFF75A"/>
<path d="M25.5384 40.4416L25.5682 40.1268C25.5062 40.3747 25.5062 40.459 25.5384 40.4416Z" fill="#FFF75A"/>
<path d="M93.9653 36.4711C93.9524 36.4865 93.9473 36.4917 93.9653 36.4711Z" fill="#FFF75A"/>
<path d="M25.6776 49.4782C25.6628 49.4732 25.6454 49.4708 25.6182 49.4584C25.6529 49.4757 25.6578 49.4708 25.6776 49.4782Z" fill="#FFF75A"/>
<path d="M30.7409 45.121C30.7433 45.1086 30.7483 45.0963 30.7483 45.0839C30.7136 45.0938 30.721 45.1086 30.7409 45.121Z" fill="#FFF75A"/>
<path d="M25.7025 49.4658C25.7025 49.4658 25.6949 49.481 25.6772 49.4785C25.6899 49.4785 25.7101 49.4835 25.7025 49.4658Z" fill="#FFF75A"/>
<path d="M53.5781 30.2897C53.5781 30.2897 53.474 30.3343 53.3302 30.426C53.3054 30.4904 53.3699 30.4632 53.5781 30.2897Z" fill="#FFF75A"/>
<path d="M48.8438 34.7609C48.8091 34.7832 48.7844 34.7956 48.7397 34.8253L48.8438 34.7609Z" fill="#FFF75A"/>
<path d="M87.3377 11.929C87.3377 11.6638 87.3203 11.411 87.3104 11.1953C87.303 11.0863 87.298 10.9847 87.2906 10.888C87.2782 10.7913 87.2658 10.7021 87.2534 10.6154C87.2757 10.8161 87.2856 11.0243 87.2955 11.2449C87.3079 11.463 87.3228 11.6885 87.3377 11.9265V11.929Z" fill="#FFF75A"/>
<path d="M25.6205 49.4609C25.5239 49.4138 25.3925 49.3369 25.2017 49.1808C25.4123 49.3543 25.5412 49.4212 25.6205 49.4609Z" fill="#FFF75A"/>
<path d="M59.1447 22.0338C59.1051 22.0908 59.0704 22.1453 59.0332 22.1999L59.1224 22.123L59.1447 22.0338Z" fill="#FFF75A"/>
<path d="M61.598 19.7214C61.5386 19.8255 61.5262 19.885 61.5014 19.9494C61.8781 19.481 62.4779 18.8762 62.986 18.3508C63.4966 17.8254 63.913 17.3718 63.913 17.1785C63.7642 17.3173 63.2834 17.7262 62.8546 18.0534C62.4308 18.3855 62.059 18.6358 62.1284 18.4475C61.5832 19.0894 60.5769 19.8453 60.2993 20.2072C61.3675 19.3199 60.5719 20.2642 60.0093 21.0077C59.3724 21.5679 59.9474 20.7326 59.4145 21.2308L58.1133 22.6956L59.293 21.4638L59.1443 22.0314C59.179 21.9793 59.2038 21.9421 59.2435 21.8851C60.1729 20.7822 60.2944 20.8144 60.4108 20.8268C60.5298 20.8417 60.6413 20.8417 61.598 19.7189V19.7214Z" fill="#FFF75A"/>
<path d="M61.5016 19.9519C61.3901 20.0932 61.2959 20.2221 61.2314 20.3311C61.4149 20.1328 61.4694 20.0387 61.5016 19.9519Z" fill="#FFF75A"/>
<path d="M70.6025 12.7494C70.719 12.6651 70.843 12.5709 70.9991 12.447C70.9247 12.504 70.7512 12.6354 70.6025 12.7494Z" fill="#FFF75A"/>
<path d="M40.2017 23.1367C40.1075 23.1243 38.9129 24.3115 39.0938 24.423C39.4284 24.0537 39.763 23.6795 40.1026 23.3052L40.2017 23.1367Z" fill="#FFF75A"/>
<path d="M82.7871 25.8506C82.8119 25.6647 82.8342 25.4789 82.8516 25.2905C82.8466 25.2484 82.8367 25.2087 82.8292 25.179C82.7871 25.2905 82.7871 25.6623 82.7871 25.8506Z" fill="#FFF75A"/>
<path d="M62.4283 18.0137C62.2325 18.2541 62.1582 18.3755 62.1284 18.4499C62.2573 18.2962 62.3688 18.1475 62.4283 18.0137Z" fill="#FFF75A"/>
<path d="M82.2737 25.9053C82.1894 26.1358 82.0605 26.4753 81.9738 26.5175C81.9217 27.0032 81.9961 27.3552 81.9837 27.8534C82.011 27.2932 82.1002 26.6488 82.2712 25.9053H82.2737Z" fill="#FFF75A"/>
<path d="M40.9026 22.4205C40.9819 22.299 41.0637 22.1751 41.148 22.0462L41.0464 22.2618C41.3041 21.9743 41.5594 21.6893 41.8172 21.4018C41.8915 21.2853 41.9758 21.1589 42.0849 21.0077C42.0452 21.0697 42.0254 21.1292 42.0229 21.1713C42.1072 21.0796 42.189 20.9879 42.2707 20.8962C42.6698 20.0436 43.9066 18.1228 44.1569 17.5155C44.5708 16.7596 45.0764 15.8574 45.4085 15.3072C45.2623 15.5674 45.0838 15.8673 44.9822 16.0904C44.8732 16.311 44.831 16.4523 44.9475 16.3829C45.3292 15.8995 45.6663 15.5674 46.0009 15.1015C46.3231 14.633 46.6701 14.0258 46.9105 12.9898C46.7568 13.369 46.6007 13.7507 46.4197 14.1225C46.6775 13.2178 46.8584 12.3107 46.9378 11.4184C47.0394 11.2053 47.0865 11.183 47.0989 11.2747C47.1137 11.3664 47.0914 11.5771 47.0394 11.8249C47.0146 11.9488 46.9898 12.0827 46.9625 12.219C46.9303 12.3528 46.8981 12.4867 46.8684 12.6106C46.8138 12.8634 46.7643 13.0765 46.7643 13.1806C47.0617 12.1471 47.4087 11.2499 47.6218 10.4419C47.8325 9.63887 47.9292 8.93498 47.711 8.44671C47.83 8.37236 47.9911 8.29304 48.1175 8.03528C48.1745 7.9064 48.2142 7.73538 48.234 7.5024C48.2563 7.26943 48.2464 6.97696 48.1696 6.6275C48.1299 7.19259 48.0456 6.98688 47.9614 6.7886C47.8721 6.58288 47.7705 6.38956 47.7135 6.82825C47.6045 6.64485 47.5376 6.30033 47.4335 6.00539C47.3343 5.71045 47.198 5.475 47.1063 5.52457L47.2525 5.53944C47.0567 4.98921 46.6899 4.63479 46.3181 4.49103C45.9439 4.34232 45.5795 4.37702 45.2821 4.46625C44.6798 4.65461 44.3081 5.0016 43.9363 5.2321C43.8049 5.28663 43.6761 5.34116 43.5546 5.39321C43.4282 5.44525 43.3043 5.49482 43.1853 5.54439C42.8879 5.65345 42.6177 5.78481 42.3575 5.89882C42.0973 6.01283 41.8494 6.1194 41.609 6.22102C41.3735 6.33255 41.1455 6.44161 40.9224 6.54818C40.4689 6.75142 40.0451 6.97944 39.6014 7.21738C39.1503 7.4454 38.7067 7.73786 38.2011 8.05263C38.035 7.95845 37.2444 7.94606 36.4463 8.50867C36.3273 8.73422 35.8291 9.17043 35.3781 9.624C34.9294 10.0751 34.5081 10.5138 34.5131 10.6972C35.9481 9.73801 35.4846 9.6463 36.2877 8.9895C37.1576 8.7367 36.5132 9.16795 37.579 8.66978C37.1551 8.87549 36.3025 9.50999 35.4574 10.1767C35.0335 10.5063 34.6048 10.8385 34.233 11.1284C33.8538 11.4085 33.5217 11.639 33.2788 11.7555L33.5341 11.4903C32.845 11.9587 32.3245 12.1124 31.752 12.4297C31.177 12.7419 30.5475 13.2079 29.6626 14.3133L28.8051 15.3493C28.8323 15.2849 28.815 15.2551 28.8224 15.213C27.2114 16.6927 27.427 16.0532 25.8482 17.9046C25.9697 17.7609 25.8631 17.8204 25.9895 17.6741C25.4368 18.093 24.9609 18.5986 24.5346 19.0968C24.3066 19.3645 24.086 19.6222 23.8778 19.8701C23.6523 20.1328 23.4292 20.3856 23.2136 20.6037C22.5791 20.8689 23.2508 20.2592 23.459 19.8304C22.4973 20.6682 21.558 21.6298 20.5938 22.6187C19.6421 23.5928 18.6581 24.6313 17.8923 25.3674L17.2379 25.754L16.6059 26.101C16.824 25.9251 17.062 25.7193 17.2875 25.5136C17.5155 25.303 17.7336 25.0873 17.9146 24.894C18.2814 24.5049 18.5045 24.2025 18.4276 24.1777C17.7039 24.7998 17.7559 24.8965 16.7819 25.5459C16.9232 25.3575 17.1264 25.127 17.3643 24.8593C17.4808 24.7279 17.6097 24.5842 17.7436 24.4305C17.8774 24.2645 18.0211 24.091 18.1674 23.91C17.7386 24.1604 17.4759 24.3537 17.2949 24.5396C17.114 24.723 17.0149 24.8816 16.943 25.013C16.8736 25.1394 16.8439 25.2013 16.7546 25.2757C16.71 25.3104 16.6555 25.3451 16.5787 25.3798C16.5415 25.3971 16.4969 25.4145 16.4473 25.4343C16.3977 25.4517 16.3556 25.4467 16.3035 25.4517C16.1524 25.5706 15.9987 25.7094 15.8475 25.8606C15.6889 26.0217 15.5526 26.1605 15.4386 26.277C15.1957 26.5298 15.0023 26.7554 14.8908 26.9115C14.5785 27.0652 14.2563 27.2164 13.9192 27.3675C13.7557 27.5559 13.3046 27.8831 12.7345 28.1631C12.1669 28.4482 11.4606 28.6663 10.8707 28.7208C10.7641 28.7753 10.9475 28.8051 11.2177 28.8051C11.349 28.7927 11.5027 28.7704 11.6539 28.7406C11.8026 28.7035 11.9439 28.6514 12.0628 28.5969C11.9513 28.7059 11.6018 28.8794 11.1656 28.986C10.95 29.0504 10.7096 29.0678 10.4791 29.1025C10.2461 29.1025 10.0181 29.1198 9.82228 29.0926C9.83963 28.9736 9.51991 28.9116 9.06634 28.7629C8.83832 28.701 8.57808 28.6018 8.32279 28.463C8.06999 28.3242 7.81966 28.126 7.67095 27.8707C7.51728 27.6179 7.48258 27.3304 7.51728 27.0974C7.5495 26.8619 7.63129 26.6686 7.70813 26.5174C7.86675 26.2175 8.01298 26.0564 8.0452 26.1407C8.23109 25.7863 8.46159 25.4393 8.70944 25.0898C8.96224 24.7478 9.24479 24.4157 9.53973 24.0959C10.1371 23.459 10.7914 22.8815 11.3763 22.2742C11.9687 21.6744 12.4495 21.0102 12.8832 20.2691C12.9997 20.0783 13.1112 19.8899 13.2203 19.7115C13.3393 19.5182 13.4558 19.3323 13.5648 19.1538C13.8052 18.7845 14.0308 18.4326 14.2489 18.1203C15.2254 17.176 16.0532 15.6889 15.7979 16.5787C16.2019 15.902 16.4944 15.3047 16.7596 14.7223C16.8934 14.4298 17.0124 14.1547 17.1314 13.8746C17.2379 13.6169 17.3445 13.364 17.4486 13.1112C17.6593 12.6081 17.8749 12.105 18.1401 11.5771C18.2863 11.2895 18.388 11.1012 18.5193 10.8657C18.6457 10.6352 18.7771 10.3923 18.9134 10.1271C18.9853 10.0404 18.8812 10.2882 18.7647 10.5435C18.6507 10.8013 18.5243 11.0714 18.6209 11.0665C18.9258 10.3304 19.2579 9.70331 19.5727 8.87053C19.7239 8.45663 19.8701 7.99315 19.942 7.47018C20.0139 6.95218 20.0262 6.35982 19.8057 5.77737C19.9321 6.18137 20.051 6.22102 20.1303 6.23589C20.0783 6.29538 20.0089 6.05992 19.8577 5.7625C19.7164 5.4626 19.4488 5.12553 19.1811 4.9446C19.0695 4.79341 19.1811 4.84794 19.2901 4.93716C19.4066 5.01895 19.5157 5.13544 19.4934 5.00904C19.1637 4.45633 18.5813 4.13165 17.9939 4.04738C17.399 3.9532 16.8042 4.12917 16.2812 4.38446C15.2254 4.91486 14.4224 5.76002 13.6392 6.49118C12.789 7.31652 11.9414 8.14186 11.064 8.99446C10.1643 9.8768 9.23488 10.7815 8.23109 11.7258C9.37863 10.6501 9.60417 10.0156 9.52734 9.90655L8.38971 10.9549C8.06255 11.4779 7.22482 12.2809 6.61511 13.0443C6.48871 13.084 6.10702 13.3715 6.397 12.9774C5.19245 13.9316 4.45882 14.8883 3.69048 15.9219C2.92463 16.9579 2.12655 18.0732 0.81543 19.4017C1.66308 18.1376 2.53551 16.886 3.43024 15.6467L2.49089 16.3035C2.88002 15.7533 3.26914 15.2031 3.6657 14.6578C2.70156 15.3915 2.28518 16.4324 2.01006 16.3705C2.13399 16.14 2.56773 15.7112 2.48841 15.6071C1.62838 16.3779 1.6953 16.5663 1.14507 17.233C1.73495 16.2292 2.80814 14.9156 3.95568 13.6516C5.10075 12.385 6.31769 11.1631 7.15294 10.2907C7.40079 10.0007 6.99928 10.6005 6.98688 10.6848C7.6883 9.99577 8.22365 9.70579 9.07625 8.80609C9.50256 8.13194 8.53842 9.08864 8.07742 9.48768C8.01546 9.29684 8.24844 9.09608 8.73174 8.61525C8.86806 8.6549 9.57195 8.04024 10.3552 7.38096C10.7468 7.05132 11.1607 6.70929 11.5275 6.42922C11.8968 6.14667 12.2066 5.94343 12.4693 5.81455C13.2649 5.10322 13.6342 4.76367 13.773 4.56787C13.9118 4.37702 13.8226 4.35719 13.7259 4.34976C13.6293 4.34232 13.5276 4.34728 13.6763 4.17874C13.8226 4.01764 14.2216 3.63843 15.1411 3.13034C15.5104 3.02376 15.8649 2.94693 16.2143 2.90232C16.7497 2.63216 17.3569 2.41158 18.0211 2.36944C18.6804 2.32235 19.3992 2.47106 20.0163 2.82796C20.6384 3.17991 21.1217 3.7574 21.3993 4.39189C21.6844 5.02887 21.7909 5.72285 21.7984 6.40939C21.7885 6.21854 21.7761 6.03018 21.7513 5.84429C21.5976 5.53944 21.6125 6.19376 21.5431 6.49366C21.496 7.51728 21.3547 8.46406 21.1267 9.33649C20.8937 10.204 20.5591 10.9946 20.1105 11.5225C19.7189 12.452 19.1984 13.6887 18.6631 14.9577C18.5788 15.1684 18.497 15.3791 18.4127 15.5873C18.3359 15.7781 18.2591 15.9665 18.1822 16.1524C18.0311 16.5117 17.8923 16.8315 17.7659 17.1016C17.409 17.3396 17.5527 16.9876 17.7956 16.4423C17.917 16.1747 18.0583 15.8648 18.1773 15.5798C18.2963 15.2923 18.3904 15.037 18.4301 14.8388L18.0658 15.5154L17.7014 16.1722C18.15 15.3592 18.1599 15.0395 18.3136 14.3158C18.098 14.6801 17.9617 14.9528 17.8526 15.2006C17.7436 15.4485 17.6667 15.6641 17.5998 15.8698C17.4635 16.2812 17.3767 16.6481 17.114 17.1636C17.0297 17.1115 16.8662 17.2825 16.5291 17.7981C16.6158 17.803 16.7051 17.803 16.7968 17.7981C16.7621 17.8179 16.7001 17.8799 16.5762 18.036C16.4076 18.3235 16.2317 18.5937 16.0532 18.8514C15.8698 19.1067 15.6765 19.3372 15.4782 19.5528C15.9987 19.1067 16.4126 18.8688 16.7224 18.4995C16.3556 18.7746 16.5836 18.4772 16.8885 18.0534C16.886 18.1723 17.0149 18.0434 17.1611 17.8848C17.3049 17.7237 17.466 17.5279 17.5601 17.4932C17.2999 17.8774 17.0074 18.2963 16.7224 18.6284C16.4374 18.963 16.1722 19.2183 16.0309 19.3645L15.3791 19.8255C14.9652 20.1774 14.6405 20.4699 14.3753 20.75C14.1076 21.03 13.8944 21.2977 13.6119 21.6224L13.3814 21.7215C13.1509 21.9867 12.97 22.2371 12.8262 22.4849C12.6874 22.7303 12.5883 23.0104 12.6676 23.2879C12.7444 23.568 12.9824 23.7589 13.1782 23.9125C13.2773 23.9894 13.374 24.0687 13.4607 24.1405C13.5475 24.2099 13.6193 24.314 13.6838 24.3958C14.576 24.0588 15.4361 23.5903 16.1524 23.0401C16.8711 22.4899 17.4635 21.9025 17.9394 21.3646C18.3111 20.8912 18.5887 20.7946 19.0448 20.5442C19.2703 20.4253 19.533 20.2741 19.7957 20.0609C20.0585 19.8503 20.3162 19.5826 20.5145 19.2777C20.5319 19.2827 20.403 19.4686 20.2146 19.714C20.0262 19.9568 19.7759 20.2642 19.5999 20.4798C19.8577 20.3038 20.1353 19.9668 20.3311 19.7387C20.5294 19.5082 20.6558 19.3794 20.7128 19.538C20.1502 19.9544 20.1403 20.0362 20.2072 20.0981C20.2716 20.1576 20.4451 20.1576 20.1303 20.4848C20.7648 19.9445 21.4117 19.2877 21.6621 18.9134C21.1986 19.3347 21.2779 19.1191 21.3423 18.9407C21.4043 18.7647 21.4663 18.611 21.0598 19.0646C21.3845 18.6036 21.7017 18.1946 22.019 17.8377C22.0983 17.7485 22.1776 17.6618 22.2594 17.5775C22.304 17.5329 22.3312 17.5031 22.3907 17.4436L22.6634 17.1834C23.0277 16.8389 23.397 16.5043 23.7638 16.1895C23.8407 16.2986 24.0538 16.1771 24.6139 15.7186L24.9039 15.1808C25.583 14.581 23.7936 16.5514 25.1567 15.3419C25.7218 14.5785 26.7826 13.6317 27.7393 12.7593C28.696 11.8844 29.5511 11.0863 29.6726 10.5857C30.3046 10.1916 29.8138 10.6947 29.4098 11.1458C29.0083 11.5994 28.6812 11.991 29.5908 11.3664C28.7828 12.3751 27.3403 13.3864 27.2461 13.8895C28.0888 12.9799 27.7468 13.7656 28.3342 13.2228C28.6316 12.8659 28.924 12.5065 29.2289 12.1521L28.9934 12.3503C29.7593 11.463 30.8647 10.4295 32.0965 9.40341C33.3308 8.37731 34.7039 7.376 35.958 6.50853C36.2059 6.29538 36.4438 6.09214 36.6768 5.89138C36.9147 5.69558 37.1452 5.50722 37.3732 5.32133C37.8243 4.93716 38.2928 4.60009 38.7736 4.24814C39.0115 4.06969 39.2718 3.91354 39.5345 3.74501C39.7997 3.58143 40.0723 3.41289 40.3648 3.25426C40.6622 3.1006 40.972 2.94693 41.3041 2.79326C41.4702 2.71643 41.6363 2.63464 41.8172 2.56772C42.0427 2.48345 42.2757 2.39423 42.5136 2.305C42.1964 2.47106 42.2782 2.47602 42.5236 2.41405C42.7739 2.34961 43.1804 2.22321 43.5348 2.14638C43.8917 2.06706 44.2015 2.03484 44.2535 2.07202C44.3081 2.11416 44.0999 2.19842 43.4753 2.48345C44.4196 2.25047 45.3342 2.11416 46.043 2.14142C46.7494 2.15877 47.2277 2.29756 47.2724 2.24056C46.8832 2.0745 46.6403 2.02245 46.4891 1.9828C46.338 1.9481 46.2735 1.9357 46.2165 1.92331C46.105 1.90844 46.0331 1.844 45.3143 1.83904C45.5647 1.78699 45.8993 1.7523 46.2661 1.77956C46.6329 1.80434 47.0369 1.89605 47.4136 2.05219C48.177 2.36448 48.7669 2.9618 49.0147 3.36084C48.7396 3.02624 48.8239 3.17495 48.7322 3.14273C49.0643 3.53433 49.2254 3.80945 49.3493 3.97798C49.4658 4.15148 49.5377 4.22831 49.6021 4.2878C49.6666 4.34728 49.731 4.38694 49.8178 4.49847C49.9045 4.61 50.0235 4.79341 50.1672 5.15527C50.1573 5.3015 50.2193 5.57661 50.2837 5.94343C50.3184 6.12684 50.3531 6.33256 50.3878 6.55562C50.4101 6.78116 50.4324 7.02158 50.4572 7.26943C50.5861 8.35749 50.5192 9.11838 50.4324 9.69587L50.4944 10.5262C50.5093 10.8038 50.5043 11.0814 50.5068 11.3639C50.4969 11.1309 50.4696 11.1111 50.43 11.2152C50.3928 11.3193 50.3407 11.5473 50.2664 11.8026C50.135 12.3231 49.9144 12.9526 49.788 13.0418C49.679 13.6045 49.5897 14.1299 49.4237 14.7074C49.3444 14.9974 49.2328 15.2898 49.104 15.6145C48.9652 15.9293 48.8016 16.2738 48.586 16.6307C48.7074 16.3035 48.4868 16.6183 48.2117 17.0025C47.9316 17.3792 47.5896 17.8154 47.4905 17.7708C46.6651 18.8936 46.1174 19.88 45.5771 20.8293C45.0318 21.781 44.4667 22.6981 43.567 23.5804C43.5769 23.4887 43.7851 23.0104 43.2869 23.5457C42.9746 24.0315 42.3203 24.7924 41.951 25.2757L41.9585 25.2583C41.9585 25.2583 41.9485 25.2757 41.9436 25.2856C41.7627 25.5235 41.6635 25.6846 41.6982 25.7243C41.1976 26.6562 41.0092 27.2064 39.8617 28.8769C40.1392 28.9166 41.1579 27.541 41.5743 26.914L41.8023 26.2621C42.4789 26.0192 42.9325 24.7899 43.3266 24.4974C43.101 25.1146 42.3996 26.0986 41.6164 27.137C40.8332 28.1755 39.9732 29.276 39.423 30.1608C40.4714 29.3925 42.2931 27.3031 43.8446 25.3401L43.0391 26.0961L43.8595 25.0873L42.8631 25.8978C43.6761 24.9783 44.3006 24.1058 45.0095 23.226C44.1941 24.2694 43.6116 24.4454 44.1197 23.9051C45.2177 22.9063 44.9475 22.6113 45.644 21.7265C45.2449 22.2148 44.7418 22.8542 44.955 22.3536C45.7506 21.5679 46.1917 21.0077 46.6205 20.4699C47.0493 19.9271 47.4731 19.3917 48.1844 18.5664C47.944 18.5714 48.2984 18.0038 48.6801 17.347C49.0593 16.6902 49.4534 15.9293 49.3766 15.7037C49.2155 16.0086 49.0445 16.3085 48.8759 16.6034C49.1436 15.9243 49.3989 15.2403 49.6021 14.524C49.8773 14.0878 49.9789 13.9663 50.0185 14.0085C50.0582 14.0506 50.026 14.2513 49.9937 14.4125C49.964 14.576 49.9466 14.7074 50.0235 14.6206C50.0631 14.576 50.1251 14.4794 50.2242 14.3009C50.3184 14.12 50.4399 13.8548 50.6034 13.483C51.0967 12.0529 51.1041 11.2598 51.1115 10.5931C51.0868 9.90655 51.0644 9.30427 51.0174 8.06502C51.0347 8.12946 51.0496 8.20134 51.0644 8.27817C51.0793 8.33766 51.0942 8.4021 51.1091 8.46902C51.1363 8.60286 51.1735 8.75157 51.1909 8.91515C51.2206 9.23983 51.2677 9.62648 51.2553 10.0429C51.2603 10.8831 51.1091 11.8571 50.8414 12.7866C50.9926 12.4272 51.114 12.0455 51.2454 11.6688C51.2454 11.8299 51.1983 12.1149 51.1264 12.4743C51.0496 12.8312 50.9306 13.255 50.7869 13.6863C50.5043 14.5587 50.0879 15.4361 49.8054 16.0136C50.1325 14.9924 50.0061 15.213 49.7261 15.7781C49.5873 16.0631 49.3915 16.4126 49.2006 16.7497C48.9999 17.0719 48.7991 17.3792 48.6355 17.5477C48.7471 17.8154 49.3816 16.6604 48.752 18.0905C48.9379 17.7807 49.0841 17.5354 49.2056 17.3073C49.3295 17.0818 49.441 16.8934 49.5526 16.6778C49.7781 16.2565 50.0408 15.8004 50.4622 14.9131C50.026 15.8797 49.7112 16.5514 49.4881 17.1041C49.2626 17.6543 49.1213 18.0757 48.9825 18.4846C48.8412 18.8861 48.7049 19.2827 48.4645 19.7313C48.3455 19.9568 48.2043 20.2047 48.0233 20.4674C47.9341 20.6013 47.835 20.74 47.7234 20.8888C47.6144 21.03 47.4979 21.1787 47.3665 21.3349C48.1671 20.0609 46.789 21.5629 46.5908 21.6348C46.1942 22.2148 45.3763 23.3648 45.064 23.8456L45.6489 23.6424C44.608 25.1939 43.6513 25.241 42.588 27.0726C42.5682 27.4122 43.8124 25.6946 43.6017 26.0093C41.9386 28.3639 40.8704 28.7803 39.1206 30.54C39.1131 30.711 39.2916 30.8226 38.8975 31.5983C38.9074 31.2637 38.4316 31.695 38.9198 30.8498C38.3374 31.4372 37.8615 32.2874 37.4922 32.8995C38.0499 32.2675 38.0053 32.4509 37.802 32.8252C37.6037 33.2069 37.2691 33.7695 37.2171 33.9405C36.6495 34.6469 37.227 33.5886 37.4922 33.1449C37.0386 33.6505 36.2703 34.1933 36.2777 34.689C36.1836 34.637 36.3695 34.1537 36.6793 33.5365C36.9816 32.9318 37.3955 32.2254 37.7772 31.69L37.2121 32.3667C37.4996 31.8214 37.5889 31.7495 38.1614 31.0803C37.4996 31.6553 37.4079 31.4769 37.4154 31.2266C37.5096 31.1572 37.4154 31.3059 37.5071 31.2414C37.9879 30.716 38.2853 30.255 38.0945 30.312C38.2754 29.6329 37.3361 30.9738 36.9321 31.2687C36.7239 31.5686 36.5132 31.866 36.3174 32.1634L35.5664 33.9281C35.3186 34.518 35.0757 35.1054 34.8427 35.6903C34.0248 37.0213 33.4572 37.4625 32.7211 38.3522C32.7335 38.4836 32.7434 38.615 32.7583 38.7463C32.0346 39.8418 31.4025 40.8654 31.5314 39.993C31.6256 39.993 31.695 39.8344 31.8487 39.5964C31.8388 39.5469 31.8512 39.48 31.8759 39.3982C31.8759 39.3684 31.8735 39.3461 31.871 39.3213C31.2142 40.5705 30.9068 41.3487 30.8771 41.4231C31.0456 40.8704 31.1398 40.5705 31.1423 40.4292C31.1473 40.2855 31.0729 40.2979 30.9688 40.3648C30.7581 40.4961 30.4235 40.8481 30.3244 40.573C30.0071 41.3091 29.6949 42.0477 29.4718 42.7813C29.7866 42.1542 29.856 42.1741 29.7965 42.4021C29.7568 42.6326 29.6081 43.0738 29.5585 43.3092C29.4916 43.3191 29.4222 43.4332 29.3528 43.6066C29.2735 43.8099 29.2487 43.8966 29.2264 44.0429C29.2041 44.1817 29.1843 44.3279 29.1793 44.4642C29.1694 44.6005 29.1521 44.7244 29.1372 44.8261L29.0876 44.8087C29.0232 45.007 28.991 45.2995 29.1075 45.5622C29.1645 45.6911 29.2661 45.8026 29.385 45.877C29.5065 45.9513 29.6403 45.9934 29.7643 46.0182C29.7816 45.981 30.0121 45.9166 30.2376 45.8224C30.4682 45.7258 30.6863 45.5944 30.8027 45.4779C30.5673 45.406 30.5549 45.3391 30.5871 45.2895C30.6218 45.2375 30.7011 45.1879 30.7185 45.1111C30.7482 45.1334 30.8127 45.1433 30.83 45.1161C30.8969 45.0541 30.7978 45.0169 30.8275 44.9351C30.6689 44.9599 30.4582 44.9599 30.3095 44.8657C30.1658 44.7715 30.0815 44.6575 29.908 44.5956C29.8163 44.6947 29.8535 44.7591 29.9031 44.8087C29.9551 44.8608 30.0171 44.8955 29.9948 45.0045C29.8262 44.9649 29.7618 44.8137 29.7643 44.6327C29.7717 44.4493 29.8287 44.2387 29.9006 44.0106L29.97 43.9685C29.9923 43.9561 30.0121 43.9437 30.0418 43.9115L30.2054 43.743C30.25 43.5323 30.3145 43.3191 30.3814 43.1035C30.4483 42.8879 30.5053 42.6723 30.5896 42.4517C30.5177 42.7367 30.5772 42.8185 30.5846 42.9969C30.5896 43.0862 30.5822 43.1977 30.5425 43.3662C30.4979 43.5323 30.4483 43.7752 30.3616 44.0701C30.4111 44.0701 30.4706 43.9611 30.5202 43.8322C30.545 43.7653 30.5698 43.686 30.5946 43.6017C30.6243 43.5125 30.6565 43.4183 30.6912 43.3167C30.8102 42.9127 30.9936 42.412 31.2018 42.0254L31.1646 41.495C31.1968 41.609 31.4174 41.2347 31.6107 40.9993C31.7966 40.7638 31.9131 40.6696 31.6752 41.3289C31.41 42.0229 31.1522 42.7119 30.9862 43.3737C31.1175 43.2175 31.229 43.0688 31.3703 42.9127C31.2588 43.1853 31.1745 43.453 31.0729 43.7207C31.0283 43.8545 30.9961 43.9834 30.9564 44.1123C30.9366 44.1742 30.9118 44.2585 30.9143 44.261C30.9143 44.2709 30.9068 44.2858 30.9068 44.2907V44.2981C30.8845 44.2907 30.8647 44.2833 30.8523 44.2486C30.8474 44.2312 30.835 44.2263 30.8325 44.199V44.0974C30.8201 44.1346 30.8102 44.1717 30.8027 44.2064L30.7953 44.2486C30.7904 44.2758 30.7953 44.2684 30.7953 44.2783C30.7953 44.2907 30.7953 44.3031 30.7953 44.3105C30.7879 44.3279 30.773 44.3428 30.7532 44.3552C30.711 44.3799 30.6416 44.4022 30.5747 44.427C30.5103 44.4518 30.4483 44.484 30.4235 44.5361C30.4012 44.5857 30.4087 44.6798 30.5524 44.7244C30.7581 44.665 30.8721 44.5906 30.9341 44.5658C30.9985 44.5386 31.0209 44.5584 31.0878 44.5931C31.0407 44.6327 31.0159 44.6898 31.0134 44.7616C31.006 44.8335 31.0308 44.9227 30.9688 45.0169C31.0283 45.0516 31.0903 45.059 31.1373 45.0442C31.1621 45.0367 31.1844 45.0268 31.2018 45.0095C31.2092 44.9996 31.2142 44.9921 31.2241 44.9847C31.2489 44.9723 31.2712 44.9599 31.2935 44.9475C31.4719 44.8261 31.5884 44.6947 31.7495 44.5485C31.8759 44.5956 31.9974 44.6104 31.9924 44.6774C31.9924 44.7046 31.9577 44.7542 31.8809 44.7963C31.8437 44.8186 31.7941 44.8434 31.7322 44.8732C31.6727 44.893 31.6008 44.9178 31.5166 44.9475C31.5289 45.1334 31.7495 45.0467 32.0023 44.9178C32.2551 44.7839 32.5451 44.5906 32.6814 44.722C33.3506 44.2907 33.8067 43.7702 34.1338 43.3167C34.4635 42.8581 34.6742 42.4467 34.9146 42.0204C35.1575 41.5892 35.4301 41.1381 35.9184 40.5432C36.1662 40.2433 36.4636 39.9112 36.8676 39.5171C37.0684 39.3213 37.2914 39.1107 37.5517 38.8851C37.6161 38.8306 37.6806 38.7736 37.7475 38.7166C37.8045 38.6695 37.864 38.6199 37.9235 38.5703C38.0449 38.4737 38.1688 38.3721 38.3002 38.268L38.2581 38.5133C40.5804 36.0448 42.0923 34.7981 44.204 32.4757L46.1942 30.9638C45.8571 31.405 45.0268 32.6715 45.6415 32.2998C44.5262 32.8971 43.7306 33.9033 42.6648 34.6717C42.6425 34.8353 43.0663 34.513 43.2721 34.3941C42.7169 34.9468 42.3178 35.1005 41.6288 35.8762C41.7205 35.8985 42.588 35.1723 42.0179 35.8043L40.8481 36.6198C39.5766 38.0102 40.5829 37.6781 38.905 39.128C39.0586 38.6918 39.4527 37.8888 40.0327 37.2592C39.2767 37.9284 40.9076 36.2306 40.1591 36.7809C39.7476 37.4005 39.3684 37.7847 38.9396 38.1986C38.724 38.4043 38.4935 38.6199 38.2382 38.8752C38.1738 38.9396 38.1094 39.0066 38.04 39.076C37.9631 39.1577 37.8813 39.242 37.7995 39.3288C37.6335 39.5047 37.4699 39.6981 37.2964 39.9063C37.4451 39.6956 37.4426 39.6039 37.8268 39.2024C37.0064 39.931 36.2976 40.6448 35.6259 41.3016C35.9308 41.1058 35.5664 41.5768 35.1946 42.0601C34.8229 42.5459 34.4387 43.0316 34.6172 43.044C35.1153 42.588 35.4598 42.2311 35.725 41.9535C35.9902 41.6734 36.1761 41.4627 36.3769 41.2422C36.5776 41.0216 36.7908 40.7861 37.1279 40.4466C37.2989 40.2756 37.4947 40.0797 37.75 39.8393C37.8739 39.7204 38.0152 39.5915 38.1713 39.4527C38.3126 39.3288 38.4663 39.1924 38.6348 39.0462C38.553 39.1354 38.4687 39.2296 38.3869 39.3263C38.3027 39.4254 38.1986 39.5493 38.1069 39.6658C37.921 39.9013 37.745 40.1442 37.5938 40.3796C37.2865 40.8506 37.061 41.2917 36.9494 41.5991C36.9197 41.6139 36.88 41.6462 36.8032 41.7205C36.6396 42.293 37.0609 41.9461 37.4005 42.2757C37.8194 41.5792 38.2754 41.0687 38.8083 40.5507C39.0661 40.3053 39.3313 40.0525 39.6163 39.7799C39.8889 39.5122 40.1739 39.2148 40.4738 38.8603C40.5432 38.4365 39.48 39.356 38.8479 40.0475L39.9112 38.7984L39.7625 39.1057C40.7762 38.1787 41.78 37.2394 42.7788 36.2951C42.2336 36.8552 42.1468 37.1452 41.9362 37.512C42.3228 37.1452 42.7491 36.8255 43.2002 36.4835C42.9424 36.3917 42.873 36.2158 43.2448 35.8539C45.1632 34.0223 46.3429 33.1102 47.2277 32.5996C47.2947 32.5228 47.369 32.4336 47.4285 32.3642C46.9402 32.5129 48.4025 30.6863 48.7694 29.9055C48.9329 30.1137 49.8178 29.0133 50.43 28.5374C50.482 28.0343 49.8128 28.1582 49.0023 28.6712C47.9862 30.1682 48.5215 29.5932 48.2291 30.4781C47.6342 31.234 47.0369 31.9899 46.4321 32.7384L46.7073 32.1089C45.6365 33.0706 44.898 34.2751 44.7492 33.9802C45.1334 33.2961 46.0951 32.4856 46.4644 31.7991L45.7258 32.4014C46.6626 30.9861 46.5362 31.9899 47.773 30.374C47.0691 30.7333 47.887 30.2302 48.348 29.4743C47.7457 29.8609 45.9538 32.1114 46.048 31.3604C46.6329 30.4731 48.8635 29.157 49.4733 27.8261L49.4658 27.9103C50.8959 26.4381 51.1785 25.7243 51.5701 25.0452C52.2616 24.4875 52.9159 23.4367 53.5429 22.7055L53.6247 22.8096L54.4897 21.7538C54.2344 22.3982 53.4215 22.9434 52.6779 23.8357L52.9555 23.8902C51.8501 24.7032 51.5948 25.6499 51.0644 26.5546C51.8997 25.3154 53.9296 23.4218 53.8131 22.8393L54.6236 22.299L54.859 21.9025C55.4663 21.5009 55.1986 22.2296 54.3385 23.2805C54.1353 23.4168 54.0362 23.4837 54.0461 23.397C53.709 23.9398 53.4686 24.4974 52.4227 25.5905L52.8614 24.9014C51.5998 26.2993 50.5365 27.6129 50.2763 28.2474C52.1748 26.3315 53.9395 24.3314 55.6571 22.4006C55.7538 21.4662 56.1355 20.5864 56.0239 19.9519C57.1293 18.5912 58.7428 16.7893 59.992 15.8277L59.9622 15.9987C60.5348 15.5005 61.0255 14.9949 61.4146 14.5488C62.0962 14.0952 61.1965 15.1238 61.6575 14.7917C62.2449 14.1621 62.8447 13.5375 63.4693 12.9254C63.4842 13.0666 63.0728 13.4929 62.582 13.9837C62.0863 14.4719 61.5064 15.0222 61.1445 15.384C61.2709 15.2353 61.5262 14.9379 61.4146 15.0023C60.9487 15.3815 60.3886 16.0309 59.8805 16.6034C59.3748 17.1785 58.9138 17.6741 58.6164 17.746C58.2595 18.2021 59.246 16.7298 57.8877 18.1277C56.9013 18.9878 56.8443 19.5033 56.8245 19.6693C56.9038 19.771 58.3388 18.3062 57.9671 18.9357C58.6462 18.1922 58.7974 17.7807 59.8011 16.9455C59.0997 17.6717 58.3636 18.8415 57.8506 19.0869C56.6906 20.6954 57.3425 20.9012 57.9894 20.2493C57.687 20.2766 60.2696 17.4808 58.3165 19.1811C58.9238 18.1649 60.4084 16.6332 61.4221 15.4584L61.4072 15.5426C61.8533 15.0866 62.3069 14.6306 62.7729 14.1869C62.6142 14.4174 62.2276 14.8561 62.3044 14.9652C62.8695 14.2761 63.4619 13.597 64.0666 12.9229C63.5709 13.5078 63.7742 13.3839 64.1757 13.0716C64.5822 12.7618 65.1919 12.2661 65.4992 12.0951C65.5959 11.7555 66.3543 10.9896 65.4744 11.525C64.4855 12.1273 65.0134 12.0232 64.2277 12.6973C64.5351 12.3008 64.8474 11.9067 65.172 11.52L65.291 11.4655C65.4695 11.2102 65.6578 10.9624 65.8462 10.7121C66.6666 10.1023 66.5873 10.3675 66.5278 10.546C66.4757 10.7294 66.4559 10.8385 67.4473 9.97842L66.9665 9.88672C68.228 9.0242 69.7845 8.17408 71.3063 7.49001C72.8256 6.79603 74.2954 6.26564 75.324 5.82446C74.8084 6.22598 74.6796 6.6151 75.5198 6.51349C75.2942 6.5804 75.0141 6.66963 74.7019 6.77868C74.3896 6.88526 74.055 7.02901 73.703 7.17029C73.009 7.46523 72.2878 7.81965 71.7054 8.13938C71.5765 8.16912 71.8987 7.88905 72.4291 7.52967C72.6992 7.35865 73.0214 7.16781 73.3635 6.98688C73.7105 6.81834 74.0773 6.65724 74.4267 6.53579C73.9905 6.39947 73.1478 6.83321 72.4117 7.28182C72.0424 7.50488 71.7004 7.7329 71.4154 7.86922C71.1353 8.0105 70.9222 8.07246 70.8156 7.96341C69.1327 8.78131 68.6419 9.29931 68.1958 9.73553C67.7571 10.1841 67.363 10.5609 66.037 11.3515C66.1585 11.582 65.4273 11.986 65.4496 12.2661C65.9354 12.1521 66.7186 11.5225 67.6431 10.8285C68.5626 10.1321 69.6234 9.36871 70.533 8.93497C70.3744 9.05146 70.0547 9.28692 70.0125 9.36623C71.2766 8.702 71.7822 8.39466 72.6447 7.85931L72.5158 7.88657C74.0203 6.91252 73.5965 7.61394 74.5903 7.319C74.7688 7.22481 75.2075 7.07858 75.5619 6.93731C75.9188 6.79851 76.2013 6.68698 76.0601 6.62997C76.6847 6.50853 77.3142 6.42426 77.9413 6.34743L77.7826 6.08471C78.3081 5.95582 78.6253 5.92856 78.9525 5.88147C79.3837 5.83438 79.7803 5.77242 80.4445 5.57414L80.5189 5.3015L79.5696 5.43038L79.0938 5.4973L78.8558 5.52952L78.6873 5.56174C78.2461 5.65097 77.8 5.71789 77.3638 5.82942C78.0131 5.60636 78.0999 5.54687 78.1941 5.45765C78.2436 5.41551 78.2957 5.37586 78.4295 5.32133C78.4964 5.29407 78.5832 5.26185 78.6997 5.22715C78.7319 5.21723 78.7542 5.2098 78.7963 5.19988C78.8459 5.18997 78.898 5.18005 78.955 5.16766C79.0665 5.14536 79.1904 5.12305 79.3292 5.09579C79.178 5.1404 79.0516 5.17758 78.9475 5.20732C78.8955 5.22467 78.8509 5.23706 78.8112 5.24945C78.774 5.26185 78.7592 5.27424 78.7368 5.28415C78.66 5.32629 78.6402 5.34859 78.66 5.36098C78.6848 5.3709 78.7344 5.3709 78.8385 5.36098C78.9698 5.34859 79.1384 5.33124 79.3292 5.30646C79.7109 5.26185 80.1719 5.19493 80.5536 5.16766C80.9402 5.15279 81.2376 5.18501 81.2847 5.2445C81.8151 5.18501 82.348 5.17262 82.8685 5.23954C82.7322 5.22962 82.5934 5.23458 82.4571 5.23458C82.9503 5.3709 83.27 5.45765 83.5823 5.54439C83.8971 5.6361 84.2094 5.73028 84.6208 5.98557C84.653 6.00787 84.6877 6.03018 84.7224 6.05496C84.7497 6.08966 84.7869 6.11197 84.8216 6.14171C84.891 6.19872 84.9653 6.26316 85.0421 6.33255C84.9752 6.26564 84.9108 6.19872 84.8463 6.13428C84.8166 6.09958 84.7794 6.07479 84.7522 6.03514L84.653 5.94591C84.1102 5.50722 83.5526 5.20732 82.8809 5.03382C82.2117 4.86776 81.4087 4.81819 80.3974 5.02639C81.0443 4.88264 81.9688 4.79341 82.8189 4.91238C83.674 5.01895 84.4423 5.35355 84.881 5.63114C85.1289 5.82446 85.3123 5.96574 85.4387 6.07975C85.5626 6.19624 85.6469 6.27555 85.7089 6.33503C86.3384 6.92492 86.6457 7.62385 86.8638 8.32527C87.0621 9.03907 87.1811 9.77023 87.2307 10.6204C87.2034 10.4196 87.1761 10.2511 87.1513 10.1073C87.1191 9.96603 87.0819 9.85202 87.0522 9.75784C86.9902 9.57195 86.9357 9.46785 86.8861 9.41332C86.7845 9.30427 86.7052 9.37863 86.616 9.35384C86.5218 9.33401 86.4301 9.21009 86.2516 8.759C86.2046 8.64747 86.15 8.51611 86.0856 8.36244C86.0187 8.21125 85.9294 8.04272 85.8377 7.84196C85.6271 7.46027 85.352 6.96953 84.8265 6.49118C84.8538 6.49861 84.8959 6.5234 84.9455 6.5581C84.9926 6.59775 85.0446 6.64732 85.0967 6.69937C85.2032 6.80595 85.3073 6.92492 85.3445 7.01166C85.2776 6.74399 84.9777 6.40195 84.5514 6.07727C84.083 5.7625 83.4485 5.54439 82.8288 5.47252C82.2092 5.39321 81.6069 5.45021 81.1806 5.50969C81.3244 5.6014 81.0741 5.6708 81.0592 5.72037C81.0518 5.74515 81.1013 5.7625 81.2823 5.77985C81.4607 5.79968 81.773 5.81207 82.2712 5.9013C82.0432 5.83438 82.2266 5.76746 82.6504 5.78481C83.0717 5.80216 83.7409 5.93847 84.363 6.33751C84.7993 6.6498 85.2107 7.06619 85.461 7.55197C85.3024 7.5371 85.1215 7.54454 84.9579 7.5495C85.4907 8.29304 85.7436 9.20513 85.8824 10.1346L85.8229 9.88176C85.7981 10.4419 85.8749 11.1731 85.9071 12.0182C85.9344 12.7048 85.9344 13.4458 85.7882 14.1646C85.8179 14.6975 85.6742 15.9491 85.5725 16.8439C85.4734 17.7386 85.4536 18.3037 85.808 17.5056C85.347 18.7176 85.4585 19.8651 85.2602 21.1961L85.7411 19.5652C85.6989 20.5864 85.6568 20.9334 85.6494 21.2407C85.6444 21.5381 85.6568 21.8207 85.7634 22.5816C85.6271 22.708 85.4883 23.0004 85.4164 22.7005C85.404 22.7724 85.3941 22.8443 85.3817 22.9162C85.3718 22.9831 85.3619 23.0525 85.3495 23.1219C85.3396 23.1913 85.3321 23.2607 85.3222 23.3326C85.3123 23.4218 85.3024 23.511 85.29 23.6027C85.2479 23.9646 85.2032 24.3363 85.1586 24.7156C85.0719 25.4715 84.9851 26.2448 84.9108 26.9859C84.767 28.468 84.6803 29.8138 84.767 30.6144C84.5539 32.4906 84.0408 32.736 83.9541 35.3904C83.9541 35.9506 84.3804 34.9988 84.0805 36.7313C84.0383 36.8453 83.9541 35.0187 83.7831 36.9668C83.8673 37.6756 83.7409 38.4836 83.5997 39.3436C83.5823 39.4502 83.565 39.5593 83.5476 39.6683L83.5402 39.708L83.5352 39.7228L83.5278 39.7526L83.5129 39.8145C83.4931 39.8988 83.4782 39.9856 83.4683 40.0723C83.4485 40.2458 83.4485 40.4193 83.5055 40.5531C83.4286 40.7514 83.3964 41.0166 83.3989 41.2347C83.3989 41.4528 83.4187 41.6288 83.2601 41.6908C83.1436 41.3537 83.1709 40.9497 83.1833 40.6275C83.1957 40.3028 83.1833 40.0327 83.1287 39.9583C83.2006 40.0029 83.2502 39.879 83.2898 39.8121C83.3295 39.7452 83.3592 39.7377 83.3939 39.9608C83.4113 39.9038 83.4262 39.8517 83.441 39.8022C83.446 39.7798 83.4534 39.7551 83.4584 39.7352L83.4658 39.703C83.4708 39.6782 83.4733 39.6534 83.4782 39.6287C83.508 39.4304 83.5278 39.2668 83.5402 39.128C83.565 38.8504 83.5625 38.672 83.5575 38.4985C83.5476 38.154 83.5253 37.8367 83.6963 36.823C83.6121 36.6718 83.3122 37.8441 83.3543 38.2903C83.0123 38.2655 83.6096 34.2478 83.0147 36.02C82.8859 37.1105 82.9825 37.8342 83.0395 38.5183C83.0693 38.8603 83.0891 39.1924 83.0668 39.5543C83.0643 39.594 83.0618 39.6336 83.0593 39.6733L83.0519 39.7427C83.0445 39.7898 83.037 39.8369 83.0246 39.8889C82.9999 39.9905 82.9602 40.0996 82.9007 40.2309C82.8586 40.1417 82.8412 40.0277 82.8363 39.9013C82.8313 39.76 82.8313 39.6906 82.8487 39.3808C82.8759 38.8678 82.8858 38.325 82.757 37.8243L82.4571 39.3635L82.4719 39.5072C82.4769 39.5568 82.4819 39.6064 82.4893 39.6311L82.5314 39.8121C82.5612 39.9286 82.5909 40.0401 82.6207 40.1467L82.5736 40.112C82.4521 40.5358 82.3976 40.8679 82.3976 41.1058C82.3976 41.3463 82.4571 41.5024 82.5463 41.6214C82.638 41.7403 82.752 41.8271 82.9032 41.9312C83.0519 42.0328 83.2403 42.1518 83.5154 42.2633C83.4237 42.0923 83.4435 41.956 83.4906 41.8618C83.5377 41.7651 83.6195 41.7007 83.6963 41.6387C83.8574 41.5123 83.9863 41.3958 83.9516 41.1951C84.1226 41.3636 84.3283 41.4206 84.4498 41.5098C84.5737 41.5941 84.6456 41.7131 84.5985 41.9461C84.2862 42.0625 84.0879 42.0849 83.9739 42.1319C83.8599 42.1716 83.8178 42.2311 83.7806 42.293C83.7434 42.355 83.7112 42.4244 83.5873 42.4641C83.5253 42.4839 83.4435 42.4938 83.3295 42.4789C83.2155 42.4641 83.0717 42.417 82.923 42.3005C82.9379 42.474 82.7669 42.5384 82.6529 42.6549C82.5959 42.7144 82.5513 42.7912 82.5686 42.9127C82.5884 43.0292 82.6653 43.2027 82.9082 43.3662C83.2403 43.4505 83.4014 43.4059 83.4658 43.3662C83.5303 43.3241 83.5055 43.2696 83.4782 43.2225C83.4534 43.1729 83.4286 43.1258 83.4782 43.1085C83.5303 43.0886 83.6616 43.1035 83.9516 43.0961C84.0012 43.1456 84.0607 43.1878 83.9987 43.2547C84.3011 43.1432 84.4399 43.1407 84.601 43.1258C84.7571 43.1085 84.9455 43.0663 85.2156 42.8011C85.176 42.8532 85.1314 42.9028 85.0868 42.9523C85.4486 42.9127 85.6246 42.6946 85.7634 42.5161C85.9071 42.3277 86.0088 42.1691 86.3012 42.0402C86.1426 42.0155 86.1996 41.889 86.3012 41.7304C86.3533 41.6536 86.4152 41.5594 86.4772 41.4627C86.5069 41.4132 86.5367 41.3611 86.5664 41.3116L86.5887 41.2744L86.6284 41.2149C86.6556 41.1728 86.6804 41.1331 86.7052 41.0959C86.6507 41.143 86.5962 41.1876 86.5441 41.2322C86.5119 41.2521 86.4797 41.2744 86.4499 41.2942C86.388 41.3314 86.3334 41.3562 86.2764 41.3834C86.1624 41.433 86.0509 41.4702 85.9344 41.5123C85.6965 41.5916 85.4734 41.7032 85.0768 41.9114C85.0298 42.0625 85.0149 42.1666 84.9653 42.2707C84.9157 42.3724 84.8315 42.4789 84.5935 42.588C84.8364 42.5384 85.062 42.4343 85.2677 42.3054C85.1363 42.4219 85.0273 42.5384 84.881 42.6425C84.653 42.6797 84.4225 42.6648 84.2044 42.6053C84.6778 42.5112 84.7844 42.3178 84.8463 42.1865C84.9009 42.0402 84.9133 41.9064 85.0421 41.718C85.3073 41.6511 85.404 41.5421 85.4734 41.4727C85.5428 41.3958 85.5849 41.3388 85.7336 41.2446C85.7609 41.3215 85.8427 41.3413 85.9691 41.3041C86.0335 41.2868 86.1079 41.2521 86.1922 41.2075C86.2343 41.1852 86.2764 41.1629 86.331 41.1232L86.3706 41.0984L86.3904 41.086L86.4251 41.0563C86.4747 41.0141 86.5243 40.972 86.5738 40.9299C86.9778 40.5878 87.424 40.1987 87.8602 39.8195C88.3014 39.4453 88.7326 39.0784 89.0994 38.7686C88.8838 38.9719 88.6211 39.2495 88.4699 39.3932C87.6322 40.511 89.3126 38.8851 89.4068 38.9049L90.0165 38.0895C89.895 38.2382 89.7587 38.4712 90.0933 38.1986C91.0203 37.1948 90.7675 37.051 91.7093 36.0571C91.8952 36.1042 91.2384 37.0832 91.9051 36.5528C92.2149 36.4512 93.1394 36.0795 94.3662 34.7485C94.4183 34.6171 94.7355 34.2702 95.1197 33.886C95.0701 33.943 95.0032 34.0099 94.9859 34.0421L95.9946 33.3705C95.4196 34.2553 94.3786 34.6642 93.816 35.5664L93.9325 35.8167C93.355 36.3645 92.6462 37.1898 92.3884 37.636C93.2881 36.823 93.4318 36.6049 94.3811 35.6333C94.6314 35.6234 94.0193 36.367 93.935 36.476L93.9796 36.2282C93.3178 36.704 92.9188 37.1626 92.5123 37.6806C92.1009 38.1961 91.6721 38.7587 90.9434 39.4527C90.7204 39.6584 90.8393 39.5147 90.8517 39.4329C90.361 40.0921 89.7885 40.6572 89.2159 41.2174C88.6533 41.7874 88.1006 42.3525 87.6768 43.0465L87.9345 42.5756C87.6099 42.987 87.1513 43.6562 86.445 44.37C86.093 44.722 85.6742 45.0764 85.1859 45.3589C84.7026 45.6489 84.14 45.8497 83.555 45.9191L83.5104 46.0207C83.6319 46.0455 83.4757 46.0727 83.2304 46.0604C82.985 46.0554 82.6578 45.9835 82.4397 45.9067H82.4422C81.8573 45.8175 81.2996 45.5795 80.8807 45.2276C80.4594 44.8756 80.1868 44.432 80.0207 44.0156C80.0529 44.3428 80.1595 44.7468 80.4247 45.121C80.4644 45.1483 80.5189 45.2003 80.5858 45.2697C80.6602 45.3317 80.742 45.4184 80.8411 45.4977C81.0369 45.6663 81.2996 45.8348 81.5574 45.9587C82.0803 46.1992 82.576 46.2413 82.4769 46.0827C82.7049 46.1793 82.9924 46.2363 83.2973 46.2562C83.6046 46.2686 83.9293 46.2339 84.2391 46.1694C84.8612 46.0356 85.3966 45.7505 85.7336 45.6291C85.4263 45.7406 85.3222 45.7357 85.347 45.6911C85.3693 45.6415 85.5205 45.5448 85.7014 45.4085C86.0707 45.1483 86.5491 44.7195 86.6086 44.5683C86.8093 44.5212 87.1836 44.1965 87.4835 43.909C87.7834 43.624 88.0262 43.3836 88.0386 43.5373C88.1527 43.4629 88.0089 43.5571 87.8007 43.7281C87.59 43.9016 87.3149 44.1395 87.129 44.3948C86.6259 44.9549 87.1513 44.603 87.6371 44.199C88.1155 43.8 88.579 43.3811 87.9618 44.1544C88.3336 43.7306 88.7351 43.2745 89.1515 42.7987C89.5208 42.3872 89.9025 41.9609 90.2966 41.5445C91.0773 40.7018 91.8729 39.8616 92.5222 39.071L91.6473 39.8046C92.3066 39.185 93.8111 37.6632 94.0093 37.6384C93.5384 38.1168 92.9783 38.667 92.3934 39.2965C92.547 39.5122 93.8705 37.8565 94.0564 37.9111C94.5596 37.2344 95.0627 36.5578 95.5807 35.8886L94.7678 36.6222C94.966 36.3298 95.5187 35.8291 96.1805 35.264C96.8522 34.7088 97.6205 34.0744 98.2748 33.5365C97.7791 34.4436 96.3689 35.2417 95.1594 36.5603C94.3068 37.5418 95.9773 36.2678 95.142 37.165C95.427 37.0064 96.0095 36.4611 96.235 36.129L96.6316 35.849C96.0491 36.823 94.2151 38.434 93.2584 39.7724C93.3352 39.6485 93.3996 39.537 93.4046 39.4775C92.4231 40.2582 91.5284 41.1604 90.7402 42.0898C91.2656 41.7032 91.392 41.4727 91.625 41.1827C91.7142 41.2075 90.9335 42.0502 90.6931 42.4219C91.5532 41.6809 90.9781 42.4046 91.516 41.9337C91.055 42.5112 90.6237 42.9201 89.9818 43.5472C89.5703 43.7975 90.1255 43.1531 89.9446 43.1109C89.8033 43.2944 89.6596 43.4356 89.5133 43.5596C89.4415 43.6215 89.3671 43.681 89.2903 43.738L89.2333 43.7826L89.1589 43.8446C89.1094 43.8867 89.0573 43.9289 89.0053 43.971C88.579 44.3229 88.1378 44.7344 87.4612 45.411C87.9469 45.0343 88.1576 44.8583 88.2121 44.8657C88.2642 44.8657 88.1502 45.0417 87.9445 45.2846C87.7412 45.53 87.4388 45.8323 87.134 46.0975C86.8316 46.3677 86.5218 46.5833 86.3359 46.7172C86.4598 46.6502 86.5862 46.5883 86.7102 46.5164C86.0583 47.136 85.3792 47.3789 84.8662 47.3269C85.8402 47.0071 86.7077 46.5114 86.4103 46.4668C86.1203 46.6354 85.8229 46.7841 85.5081 46.913C85.1933 47.0443 84.8637 47.1658 84.5018 47.2624C84.7249 47.1732 84.9405 47.0691 85.1487 46.9526C84.1449 47.3021 83.037 47.3417 82.0085 47.0691C81.7358 47.0716 81.3641 47.0567 81.0071 46.9898C80.6478 46.9303 80.2958 46.8361 80.0405 46.7816C79.7629 46.4619 79.4333 46.0951 79.1607 45.7134C78.893 45.3292 78.6674 44.9376 78.5262 44.5956C78.5807 44.6922 78.6451 44.7864 78.7022 44.8806C78.6005 44.5187 78.484 44.0577 78.4146 43.5273C78.3428 43.0019 78.3155 42.4046 78.3279 41.8147C78.3403 41.2248 78.3874 40.6622 78.3973 40.2285C78.4122 39.7947 78.4097 39.4874 78.3799 39.4031C78.4469 39.0908 78.4791 39.5023 78.5088 40.1169C78.5386 40.7316 78.5584 41.5445 78.6575 42.07C78.7542 42.5979 78.8707 42.8656 78.9178 42.5781C78.945 42.4318 78.955 42.1468 78.9921 41.6486C79.0268 41.1505 79.1086 40.4367 79.1904 39.4576C79.1979 39.3709 79.2078 39.2891 79.2152 39.2098C79.2202 39.1503 79.2251 39.0933 79.2276 39.0413C79.235 38.9322 79.24 38.8355 79.2425 38.7438C79.2474 38.5654 79.2425 38.4192 79.2325 38.2977C79.2102 38.0573 79.1582 37.9185 79.1012 37.8045C78.9847 37.5789 78.8335 37.4625 78.8137 36.8676C78.8137 36.8676 78.8558 36.9395 78.8979 36.8255C79.0268 35.9283 78.8558 35.8192 78.8558 35.0682C78.7269 35.6011 78.6427 36.3843 78.6848 36.6446C78.5138 36.3521 78.8979 34.7683 78.8137 34.062C79.0268 34.9914 79.1136 32.332 79.1979 33.0433C79.582 31.2712 79.5399 29.328 79.4135 28.3639C79.9265 27.1866 79.5845 26.225 79.9687 24.2694C79.9265 24.5718 79.9265 25.1295 79.8398 25.5483C79.9662 26.6984 80.1818 23.516 80.2239 25.2707C80.2239 24.8965 80.0975 25.2311 80.0951 25.6152C80.0529 26.282 80.0951 26.9189 80.2239 26.7653L80.6081 25.179V25.7466L81.1633 23.335C81.1212 23.2632 81.0369 23.4862 80.9923 23.6002C81.0443 23.2309 81.0989 22.8567 81.1534 22.475C81.2178 22.071 81.2872 21.6918 81.3566 21.3126C81.4905 20.5765 81.6268 19.8304 81.7581 19.0993C82.0109 17.6518 82.2167 16.2614 82.3902 15.0767C82.0977 14.8388 82.1894 13.5921 82.1696 12.2413C82.1696 12.1645 82.1646 12.0851 82.1646 12.0058C82.1646 11.9463 82.1597 11.9092 82.1547 11.8596C82.1497 11.7654 82.1398 11.6712 82.1299 11.5771C82.1101 11.3887 82.0754 11.2028 82.0258 11.0293C81.9292 10.6823 81.7259 10.3824 81.4508 10.3105C81.3393 10.2783 81.2302 10.2758 81.136 10.2932C81.4533 10.1494 81.8598 9.94124 81.7904 9.69835C81.8151 9.70827 81.8449 9.7157 81.8771 9.72809C81.9515 9.74792 82.0308 9.7851 82.1274 9.82228C82.2142 9.86937 82.3133 9.92637 82.3951 10.0131C82.5661 10.1767 82.7 10.432 82.7371 10.7368C82.6925 10.8162 82.6777 11.064 82.6281 11.2251C82.5835 11.3862 82.5265 11.4581 82.4397 11.2524C82.5017 11.6365 82.524 11.8249 82.5661 11.8844C82.6033 11.9463 82.6454 11.8844 82.6925 11.7729C82.7892 11.5622 82.8735 11.126 83.0222 11.3763C82.9751 10.9302 82.8809 10.5361 82.7198 10.2114C82.5636 9.88672 82.3257 9.63639 82.0283 9.52238C81.602 9.3588 81.1608 9.42572 80.8014 9.51742C80.618 9.56699 80.4495 9.624 80.2884 9.68348C80.1198 9.74544 79.9612 9.80493 79.8026 9.85698L79.7605 9.78262L79.1433 9.99825C78.9252 10.0701 78.7096 10.1494 78.4989 10.2362C79.0442 10.1073 79.3292 10.1767 79.2945 10.2684C79.2598 10.3651 78.9178 10.4989 78.2188 10.6253L78.3799 10.5609C78.1742 10.5733 77.9189 10.6204 77.6389 10.7096C77.3588 10.7938 77.0465 10.8955 76.7293 11.0318C76.5706 11.0962 76.4095 11.1631 76.246 11.2301C76.0849 11.3044 75.9238 11.3763 75.7627 11.4506C75.4404 11.5969 75.1257 11.7382 74.8357 11.872C74.6027 12.0579 74.3772 12.2562 74.1541 12.4544C73.009 13.0195 72.7562 12.6949 72.2581 12.6924C71.3559 13.2005 70.7164 13.7333 70.1687 14.2439C69.6234 14.7644 69.1674 15.2725 68.6518 15.8128C68.3321 15.9442 67.5564 16.4993 67.0136 16.8885C66.4708 17.2776 66.1436 17.4734 66.7062 16.8364C66.3716 17.1785 66.1833 17.4709 66.0445 17.7411C65.9057 18.0112 65.814 18.2541 65.6826 18.5168C65.4149 19.0398 64.9688 19.5975 63.6131 20.5715L64.0939 19.8428C61.8682 22.066 59.0973 25.7243 57.9671 26.7182C58.1232 26.0614 57.3326 26.7058 56.3932 27.5237C55.4539 28.3416 54.3559 29.3305 53.9296 29.333C54.1427 29.3082 53.3595 30.25 53.2926 30.4334C53.0572 30.5822 52.7027 30.8647 52.4772 31.3009C53.4314 30.4483 52.3508 32.4038 53.8106 30.4334C53.2976 31.6306 52.4698 33.0408 50.5836 34.9889L50.4225 34.7782L51.9518 33.2763C51.6618 33.3011 52.4276 32.5079 52.668 32.1139C49.8426 34.922 52.5862 31.3257 49.8202 34.2999C49.6715 34.6989 49.7979 34.4709 49.1139 35.2764C49.4534 34.9121 49.384 34.7237 48.8264 35.2963L48.4422 35.9927C47.1435 36.7065 49.8723 34.1115 48.809 34.7659C49.7508 33.4993 51.518 31.4471 50.9281 31.5859C49.0965 33.3581 49.8153 33.6902 47.8474 35.5044L47.5475 35.6085C46.9625 36.3496 47.0171 36.6148 46.7543 37.0808C46.6651 37.0585 46.4544 37.1849 46.0108 37.5963C45.126 38.957 44.4196 39.7452 43.6215 41.029C44.9302 39.5717 45.5622 39.0239 46.214 38.4737C46.8609 37.9185 47.5301 37.3584 48.8487 35.8242C48.4893 36.357 46.5486 38.434 46.6775 38.8108L46.5189 38.6001C45.6861 39.6237 44.8434 40.6424 43.5943 41.7279L44.2164 40.9224C43.4951 41.7503 42.7689 42.3054 42.1047 42.8433C42.0229 42.9102 41.9411 42.9771 41.8593 43.044L41.6412 43.2299C41.4999 43.3489 41.3636 43.4852 41.2347 43.619C40.9745 43.8991 40.7366 44.2114 40.5308 44.5906C40.9497 44.1767 41.262 43.8396 41.4751 43.5719C40.8332 44.37 39.8988 45.3837 38.9818 46.276C38.4786 47.0096 37.921 47.7606 37.2568 48.5066C37.2221 48.4472 36.8503 48.7198 36.5256 48.9007C36.2108 49.0841 35.9679 49.1808 36.2901 48.8264C35.3533 49.3865 34.6246 49.8277 33.9529 50.192C33.6158 50.3729 33.2961 50.5365 32.9665 50.6704C32.8029 50.7422 32.6368 50.7992 32.4633 50.8538C32.2626 50.9182 32.0569 50.9678 31.8462 51C31.467 51.0198 31.2266 51.005 31.0927 50.9851C30.9589 50.9678 30.9341 50.9504 30.9886 50.9331C31.0432 50.9157 31.1745 50.8984 31.3555 50.8736C31.5364 50.8463 31.7718 50.8067 32.0271 50.7596C32.1535 50.7373 32.2898 50.7001 32.4262 50.6654C32.5451 50.6332 32.6641 50.6059 32.7806 50.5638C33.0111 50.482 33.2441 50.4076 33.4349 50.3135C33.8315 50.1375 34.0991 49.9442 34.119 49.8401C33.7373 49.9913 33.3407 50.1325 32.9293 50.2366C32.7211 50.2961 32.5278 50.3382 32.2998 50.3829C32.0593 50.4374 31.8239 50.4622 31.5835 50.4919C30.6317 50.601 29.6924 50.544 28.8323 50.3903C28.6142 50.3605 28.406 50.3085 28.2028 50.2589C27.9971 50.2118 27.7939 50.1672 27.6055 50.0978C27.4146 50.0359 27.2288 49.9739 27.0453 49.9144C26.8694 49.845 26.6984 49.7707 26.5397 49.6938C25.8978 49.3815 25.3947 48.9627 25.0576 48.5512C25.2509 48.8834 25.4318 49.1064 25.5459 49.2502C25.6599 49.3939 25.707 49.4633 25.6698 49.4732C25.6574 49.4063 25.3476 49.1386 25.0551 48.7247C24.7552 48.3158 24.5247 47.7631 24.4181 47.3566C24.319 47.193 24.2199 47.0245 24.1356 46.8485C24.0885 46.1124 24.1802 45.7828 24.2273 45.7976C24.2868 45.8076 24.324 46.1595 24.4652 46.7172C24.4256 46.3875 24.3934 46.0455 24.3785 45.6861C24.3785 45.3242 24.4107 44.9426 24.4281 44.5584C24.4305 44.1742 24.5371 43.7826 24.6239 43.4009C24.6709 43.2101 24.723 43.0217 24.7825 42.8383C24.842 42.6499 24.9238 42.4913 25.0006 42.35C24.9684 42.4864 24.9361 42.6276 24.9039 42.7689C24.8767 42.9226 24.8469 43.0762 24.8197 43.2324C24.7602 43.5447 24.6982 43.857 24.6288 44.1693C24.5941 44.4816 24.5569 44.7938 24.5222 45.1037C24.5049 45.2573 24.4851 45.411 24.4677 45.5622C24.4628 45.7109 24.4603 45.8596 24.4628 46.0034C24.4727 46.5808 24.5644 47.1088 24.7156 47.545C24.8618 47.9837 25.0774 48.3257 25.2707 48.5438C24.9138 48.0779 24.7304 47.5921 24.6263 47.1509C24.5222 46.7072 24.5024 46.2958 24.5148 45.9116C24.5198 45.53 24.6164 45.1656 24.6809 44.8236C24.718 44.6526 24.7527 44.4865 24.7899 44.318C24.8197 44.1519 24.894 43.9859 24.9436 43.8198C25.0526 43.4926 25.1642 43.1556 25.2856 42.7887C25.3476 42.6376 25.412 42.4789 25.4814 42.3104C25.5409 42.1617 25.6004 42.008 25.6673 41.8444C25.8061 41.5272 25.9523 41.1703 26.1184 40.7638C26.2968 40.3697 26.4703 39.9087 26.7008 39.4106C26.7975 39.3982 26.6091 40.1318 26.9859 39.3783C27.1866 38.9322 27.2957 38.6819 27.3304 38.5332C27.3676 38.3845 27.3353 38.3423 27.2808 38.3349C27.1718 38.32 26.966 38.4489 27.0305 38.1341C26.4009 39.5122 26.0242 40.1219 25.474 40.8877C25.4839 40.739 25.4913 40.5878 25.5062 40.4441C25.6004 40.4168 25.9969 39.5097 26.1952 39.2941L26.054 38.9446C26.2795 39.1776 27.1792 37.9185 27.6922 36.8577C26.8942 37.7797 27.0652 37.5046 26.5967 37.6236C26.8694 36.8007 27.1841 36.4289 27.5138 36.0497C27.8409 35.6655 28.183 35.2715 28.5473 34.404C28.5473 34.5701 27.7368 35.9729 28.5572 34.8402C29.2066 33.8959 28.9216 33.8835 29.2958 33.2094C29.0158 34.0644 29.3008 33.995 29.0331 34.9393C28.4903 35.7994 28.3813 35.9729 28.2846 36.1489C28.1904 36.3298 28.0913 36.4909 27.6352 37.3931C27.9797 36.9345 28.3416 36.4983 28.6985 36.0596C27.8261 37.5467 28.3019 37.284 28.3119 37.4525C29.1744 36.2653 29.4024 35.7696 29.5263 35.3483C29.6602 34.9393 29.6899 34.6048 30.255 33.8637C30.6218 33.021 29.2289 35.2814 29.8758 34.0149C30.3888 33.3085 30.4136 33.2044 30.4384 33.0681C30.4632 32.9318 30.483 32.7533 31.0109 31.9379L30.9143 32.27C31.3877 31.8809 31.5835 31.2984 31.9676 30.7358C32.1585 30.4136 31.8512 30.4483 31.7247 30.255C31.6603 30.1583 31.643 30.0047 31.752 29.7196C31.8685 29.4346 32.1188 28.9984 32.5997 28.3738C32.5625 28.5399 32.565 28.6142 32.5873 28.6316C32.5625 29.2562 32.5402 29.8907 32.5327 30.5078L32.5154 32.3568C33.4324 31.1101 34.4511 29.7667 35.5664 28.4333C36.6768 27.0974 37.864 25.754 39.0611 24.4231C39.9286 24.0439 37.7004 26.6166 37.9879 26.5695L36.8825 27.779C36.7958 27.5881 39.019 25.0972 37.8318 26.0341C36.0968 28.3441 35.093 29.2413 33.7472 31.6653C34.171 31.4496 34.6965 30.7185 35.2987 29.8956C35.901 29.0752 36.5801 28.1631 37.2716 27.5782C36.7759 28.1384 36.4165 28.6613 36.0819 29.1768C37.165 27.9029 38.3547 26.567 39.6188 25.1419L39.8121 24.7453C38.957 25.7045 38.3622 26.3638 38.2779 26.4406C39.3907 25.1542 40.1244 23.8977 39.9534 23.6126L39.7526 23.8382L40.0674 23.3028C40.335 23.0079 40.6027 22.7105 40.8679 22.418L40.9026 22.4205ZM8.42937 10.9153C8.48389 10.8236 8.51859 10.7418 8.53346 10.6699C8.51859 10.7443 8.59047 10.7195 8.42937 10.9153ZM30.9341 47.8374C30.4533 47.8449 29.9749 47.7854 29.5164 47.6739C29.0604 47.5549 28.6043 47.4285 28.2152 47.1732C28.0219 47.0468 27.8558 46.8758 27.7418 46.675C27.6278 46.4718 27.5658 46.2462 27.5386 46.0182C27.489 45.5597 27.551 45.1037 27.6501 44.6724C27.4865 45.069 27.3651 45.4878 27.313 45.8993C27.2585 46.3082 27.2957 46.7097 27.4246 47.0195C27.5485 47.3318 27.7443 47.545 27.8979 47.6986C28.0541 47.8523 28.178 47.9564 28.2276 48.0308C28.2821 48.1002 28.2648 48.1398 28.1557 48.1398C28.0467 48.1373 27.8409 48.1026 27.5485 47.9663C27.2635 47.8325 26.8719 47.5698 26.6364 47.0369C26.4034 46.5114 26.3538 45.7778 26.51 44.9178L26.5422 44.4667C26.4852 44.6947 26.4183 44.9673 26.3662 45.2697C26.3241 45.5746 26.2993 45.9092 26.3291 46.2611C26.3563 46.6106 26.4431 46.9774 26.629 47.3046C26.8099 47.6342 27.1048 47.9019 27.4345 48.0803C27.7294 48.2018 28.2301 48.2984 28.7803 48.3307C29.3305 48.3678 29.9303 48.3307 30.4409 48.229C31.4744 48.0184 32.1263 47.5772 32.1139 47.54C32.0172 47.5251 31.9181 47.5276 31.8115 47.54C31.7124 47.5524 31.6132 47.5846 31.4967 47.6069C31.2712 47.6615 31.0035 47.7234 30.7086 47.6912C30.7804 47.7383 30.8548 47.7903 30.9341 47.8325V47.8374ZM32.6121 48.5835C33.2738 48.405 33.5018 48.2588 33.5935 48.177C33.6828 48.0878 33.6307 48.0407 33.6976 47.9391C33.2912 48.1646 32.8599 48.353 32.4138 48.4893C32.5922 48.4695 32.6938 48.4868 32.6145 48.581L32.6121 48.5835ZM33.5712 47.8647C33.4399 47.9291 33.3234 47.9738 33.2565 47.9837C33.363 47.949 33.4696 47.9093 33.5712 47.8647ZM34.3445 31.3009C34.3123 31.348 34.3024 31.3654 34.2702 31.41C34.461 31.1745 34.6519 30.9366 34.8501 30.6887C34.7609 30.7755 34.6072 30.9539 34.342 31.2984L34.3445 31.3009ZM32.5476 33.2218V33.601C32.7236 33.3779 32.902 33.1499 33.083 32.9144C32.9442 32.9318 32.8128 32.9615 32.5476 33.2218ZM27.4072 40.0351C27.4047 40.1863 27.3626 40.4069 27.3006 40.6548C27.2411 40.9026 27.1494 41.1703 27.0875 41.4404C27.023 41.7081 26.966 41.9609 26.9413 42.1592C26.9165 42.3575 26.9363 42.5087 26.9983 42.5607C27.0379 42.697 27.1792 42.3426 27.3651 41.9609C27.5361 41.5198 27.7542 41.0662 27.9822 40.5829C27.9475 40.5457 27.9574 40.4342 27.9996 40.2557C27.7294 40.7118 27.5262 41.0141 27.4369 40.7341C27.6699 40.4614 27.8087 40.2532 27.8955 40.0698C27.9797 39.8864 28.007 39.7253 28.0293 39.5543C28.0739 39.2172 28.1012 38.8479 28.5101 38.2234C28.5349 37.9656 28.2747 38.2903 28.0095 38.7562C27.7344 39.2123 27.4716 39.8121 27.4072 40.0351ZM80.8312 39.7328C80.799 39.7749 80.7147 39.9186 80.6032 40.1417L80.5635 39.0487C80.8213 37.2444 81.4186 35.839 81.2054 34.1685C81.3814 33.4151 81.6268 33.0284 81.8374 32.6567C81.7854 33.0284 81.7334 33.3754 81.6763 33.6654C81.7606 38.3002 80.8361 35.9729 80.8337 39.7328H80.8312ZM83.8376 19.02C83.8227 19.2083 83.8599 19.2852 83.8599 19.2852C83.9566 17.228 84.0706 15.3592 84.0929 13.7433C84.1003 13.3393 84.1003 12.9501 84.0929 12.5808C84.0929 12.395 84.083 12.214 84.078 12.0381C84.0755 11.867 84.0607 11.7035 84.0507 11.5424C84.0061 10.9029 83.9293 10.3328 83.8004 9.83467C83.7508 10.0924 83.7657 10.6699 83.7137 11.2524C83.7038 11.3986 83.6914 11.5448 83.674 11.6886C83.6616 11.8348 83.6443 11.9637 83.6244 12.1223C83.5922 12.4297 83.5476 12.7172 83.5154 12.9402C83.4386 12.6701 83.3667 12.4024 83.2799 12.1446C83.3493 11.9736 83.4187 11.8621 83.4807 11.7134C83.3939 11.3391 83.2874 10.9921 83.1486 10.6798C83.0916 10.8632 83.0965 11.1508 83.0841 11.463C83.0817 11.6192 83.0668 11.7803 83.0544 11.9364C83.042 12.0306 83.0321 12.1248 83.0197 12.2165C83.0073 12.3156 82.9924 12.4098 82.9701 12.4991C82.9924 12.5313 83.0668 13.1286 83.1015 13.825C83.1436 14.519 83.1535 15.3072 83.1857 15.6567C83.3345 15.0197 83.4708 14.3827 83.5848 13.7433C83.5303 14.001 83.4509 14.7718 83.3469 15.6096C83.2428 16.4498 83.1312 17.3544 83.0668 17.8675C83.1957 17.9121 83.6889 16.1747 83.4311 15.9119C83.6591 15.7285 83.3394 17.7683 83.7459 16.5093C83.7186 18.0781 83.0643 20.4749 82.7669 21.5902L82.4149 21.7265C82.2439 22.3461 82.3108 22.5816 82.3703 22.8443C82.4298 23.1021 82.4868 23.3747 82.3158 24.1108C82.4447 22.2742 81.9316 24.3834 82.058 22.9261C81.887 23.3772 81.716 22.9013 81.5896 24.3611C81.887 25.6202 81.1633 25.8705 81.4186 27.0577C81.2054 27.8112 81.2476 26.2051 81.0344 27.7096C81.0766 29.4644 81.2476 29.3801 81.5475 29.5189C81.8027 27.9103 81.3343 27.66 81.5475 26.3439L81.8027 29.0306C81.9291 28.5523 81.9738 28.1954 81.9837 27.8905C81.9589 28.4234 81.9911 28.8794 82.058 29.276C82.0952 29.5015 82.1274 29.7097 82.1522 29.9006C82.3108 28.4085 82.4571 27.085 82.6132 26.8644L82.7421 27.085C82.9354 26.5719 82.9181 25.6995 82.8487 25.2906C82.9751 23.9522 82.8908 22.594 83.1486 22.3436C83.1684 22.5171 83.1882 22.6881 83.2155 22.8542C83.3022 22.0611 83.3815 21.6001 83.4609 21.0994C83.5451 20.5963 83.6468 20.0411 83.8376 19.0175V19.02ZM49.0717 31.8511C50.1524 31.5017 51.2925 31.0506 54.341 27.5039L54.1254 27.8038C55.9545 26.2795 56.817 24.0563 59.0328 22.2024C58.2521 23.3673 58.2893 23.3003 57.6226 24.7577L58.4999 23.5482C58.4479 24.0563 59.3228 22.8492 60.0738 22.0636L59.6896 23.0128C59.1716 23.4218 58.0142 24.6585 58.1083 24.6759C58.3264 24.371 56.2792 26.0465 55.4142 27.1841C55.6943 27.2337 57.6126 24.9237 57.0203 26.1903C57.6796 25.1964 57.9571 25.2484 58.7156 24.2769C58.0513 25.2658 58.7676 24.7156 58.314 25.4864L59.5979 23.9348C59.6921 23.9472 57.7737 26.2349 59.0973 25.2063C59.5384 24.5173 61.0999 23.045 60.9363 22.8443L61.028 22.8616C62.0913 21.8108 61.2015 22.1206 62.5771 20.9012C62.4977 20.7946 62.1904 20.9829 61.7542 21.4762C61.4171 21.9223 61.484 22.1032 60.7331 22.9707C60.2324 23.2086 61.6922 21.9719 60.8966 22.3213C60.4976 22.4899 58.9535 24.6635 59.2336 23.7787L60.2894 22.7055C60.1234 22.4998 60.8743 21.7116 60.7008 21.5902C61.261 20.8516 62.0714 20.4327 62.5671 19.6074C62.7208 19.2108 62.0144 19.4686 63.2165 18.4722C63.789 18.1897 64.6962 17.4139 65.6132 16.6332C66.5253 15.85 67.4473 15.0569 67.9504 14.6256C68.2181 14.3431 68.4982 14.0704 68.7708 13.7903C68.6841 13.7556 68.2429 14.0952 67.886 14.3678C67.534 14.6479 67.2589 14.8586 67.487 14.5438C67.7175 14.3455 67.9504 14.1497 68.1859 13.9589C68.4213 13.768 68.6568 13.5722 68.8972 13.3913L68.8427 13.5549C69.0955 13.3888 69.3285 13.193 69.554 12.9948C69.782 12.7989 70.0051 12.6056 70.2133 12.4272C70.0324 12.6676 69.6556 12.9452 69.3805 13.1906C69.1054 13.4359 68.922 13.6268 69.1079 13.6615C69.8267 13.2079 69.9927 13.2277 70.6074 12.7494C70.476 12.8584 70.3719 12.9625 70.4091 12.9824C71.8962 12.1545 71.6459 11.8571 71.9681 11.5498C72.2977 11.2573 72.3646 11.1532 72.2705 11.1458C72.1763 11.1384 71.921 11.2301 71.6335 11.3639C71.0486 11.6142 70.3248 12.0108 70.3422 11.8299C71.7599 10.8632 73.2495 9.99329 74.8258 9.2894C74.4491 9.53229 74.0872 9.80741 74.283 9.83715C74.8778 9.63391 74.9125 9.69587 74.9894 9.69587C75.029 9.69835 75.0811 9.69092 75.2248 9.64135C75.3661 9.5893 75.6016 9.50007 76.0105 9.3464C75.8891 9.1977 76.3823 8.93497 77.0688 8.68713C77.7504 8.4244 78.6204 8.1939 79.2127 7.95597C79.5151 7.96588 79.6985 7.98819 79.6465 8.02289C79.6217 8.04272 79.5374 8.06502 79.3837 8.09972C79.2301 8.13938 79.0045 8.1939 78.6947 8.26578C78.7443 8.31783 78.8831 8.32527 79.0739 8.30792C79.2648 8.28809 79.5052 8.24843 79.7481 8.21373C79.991 8.1716 80.2487 8.12699 80.4792 8.08733C80.7122 8.05015 80.9204 8.02785 81.0617 8.02041C81.4037 7.92623 82.0035 7.89896 82.3926 7.95349C82.1919 7.83452 82.1398 7.76265 82.2761 7.72547C82.4075 7.69325 82.7545 7.67838 83.2403 7.91631C83.2601 7.92623 83.3072 7.94358 83.3493 7.9758L83.4336 7.98075C83.389 7.93862 83.3419 7.89896 83.2824 7.85931C82.8858 7.57676 82.3579 7.40326 81.8003 7.34626C81.2426 7.28925 80.6453 7.32147 80.0777 7.40822C79.7952 7.44788 79.5101 7.48753 79.2474 7.53462C79.0045 7.58667 78.7716 7.63872 78.5559 7.69077C78.1222 7.79239 77.7653 7.93862 77.51 8.06502L77.795 7.86426C77.2597 7.94606 76.7243 8.12699 76.2038 8.31783C75.6908 8.53098 75.1901 8.759 74.7366 8.99694C74.2756 9.22 73.8666 9.45794 73.4923 9.61656C73.1231 9.78758 72.8009 9.90407 72.5257 9.9115C72.5208 9.70579 72.1267 10.0776 72.035 9.82971L71.3881 10.3031L70.7586 10.7938L70.9816 10.5237C70.2133 10.9921 69.4772 11.5077 68.751 12.0281L68.7807 11.9463C67.8711 12.8733 67.2143 13.6392 66.6988 14.2538C66.7707 14.3455 66.85 14.3183 66.5848 14.6504C66.2998 14.9627 66.0593 15.1684 65.8363 15.3444C65.3257 15.7384 64.8945 15.902 64.26 16.3878C64.8598 15.8302 65.4645 15.2774 66.0891 14.747C66.1213 14.4744 65.8239 14.4397 64.8176 15.1386C65.1869 14.8065 65.2464 14.5562 64.7656 14.9428C64.7408 15.0197 63.6354 16.1226 64.1807 15.8376C63.333 16.653 62.1483 17.6345 60.9165 18.7944C59.6822 19.9494 58.4107 21.2779 57.3598 22.7179C58.9039 20.6781 55.7984 24.0588 57.6349 21.9074C56.0784 23.1665 56.7229 23.3747 55.3522 24.842C55.154 24.8965 56.0884 24.034 56.2321 23.5432C53.9172 25.9573 52.8911 28.0913 50.6282 30.3864L50.3581 30.3219C49.964 30.7879 49.5278 31.3034 49.0742 31.8388L49.0717 31.8511ZM44.8558 36.6247C44.4345 37.0808 44.0082 37.5442 43.5769 38.0127C43.624 37.9705 43.6661 37.9309 43.7132 37.8888L42.5161 39.3288C43.4034 38.6001 44.1271 38.2581 43.0663 39.4676C43.0936 39.3015 42.6723 39.5394 43.0316 39.1107C42.1642 39.76 40.3598 41.2818 41.0563 41.1232C42.3104 39.4453 41.728 41.1282 42.7194 39.817C42.2584 40.5953 41.5594 41.1158 41.034 41.7602C41.2769 41.3934 41.1629 41.3463 40.863 41.4925C40.5631 41.6387 40.0822 41.9733 39.6014 42.4046C39.2495 42.8408 38.1911 43.9214 37.6161 44.6625C38.0053 44.5733 37.5443 45.2573 38.6249 44.1817C38.2903 44.6278 37.7326 45.3019 36.9445 45.9092C37.1997 45.6093 37.6533 45.1061 37.5616 45.0838C36.9792 45.3936 36.4587 45.9092 36.0943 46.1124C35.8638 46.338 35.6209 46.5561 35.3781 46.7642C35.4648 46.7196 35.5441 46.6874 35.611 46.675C35.3731 46.9551 35.1228 47.2277 34.8526 47.4904C35.4276 47.027 35.5615 46.9303 35.5862 46.9848C35.6086 47.0394 35.502 47.2302 35.5317 47.2872C35.4648 47.1707 35.2764 47.312 35.036 47.5078C34.7981 47.7061 34.5081 47.9614 34.2801 48.0902C34.6568 47.9861 35.0211 47.8523 35.388 47.7061C35.2021 47.9217 34.7659 48.1596 34.409 48.3183C34.057 48.4868 33.7844 48.5835 33.9802 48.6454C34.5552 48.3901 35.0112 48.12 35.3979 47.8573C35.782 47.5921 36.1067 47.3393 36.4066 47.0741C37.0064 46.5486 37.5244 45.9959 38.2085 45.2226C37.9631 45.3763 37.7177 45.5275 37.4699 45.6762C38.2333 44.7914 38.5282 44.5906 38.8777 44.3824C39.2222 44.1767 39.6014 43.9363 40.4614 43.0391C40.6077 42.8185 40.8431 42.5483 41.1158 42.2658C41.4082 41.9708 41.7255 41.6511 42.0229 41.3512C42.6103 40.7489 43.0862 40.2161 42.9697 40.0574C42.821 40.3697 44.3626 39.1924 44.8633 38.4439C45.3094 37.5095 47.3368 35.3805 46.5932 35.901C46.0331 36.4636 45.4184 37.3608 44.8013 37.6459L45.8373 36.5033L44.9847 37.0808C45.4036 36.761 45.2326 36.6619 44.8583 36.6272L44.8558 36.6247ZM32.7112 38.0127C32.7211 38.0003 32.7335 37.9829 32.7459 37.9681C32.7335 37.9854 32.7211 38.0028 32.7112 38.0201V38.0127Z" fill="#FFF75A"/>
<path d="M94.6933 35.1823C94.9585 34.813 95.7789 34.0819 95.4914 34.0868C95.6475 34.2207 94.0687 35.4426 94.6933 35.1823Z" fill="#FFF75A"/>
<path d="M95.7992 34.4462C95.8215 34.3569 95.7273 34.3322 96.0892 33.9976C95.7645 34.3123 95.4423 34.6296 95.1226 34.9493L95.7992 34.4437V34.4462Z" fill="#FFF75A"/>
<path d="M97.7821 34.6023C98.1935 34.0248 98.4662 33.6679 99.294 32.964C99.9384 33.083 98.0473 34.2429 98.0027 34.932C99.5195 33.6506 99.6881 32.9145 100.91 31.819C100.528 31.9949 99.6905 32.6071 98.9742 33.2119C98.2629 33.8265 97.673 34.4338 97.7821 34.6023Z" fill="#FFF75A"/>
<path d="M97.5611 35.6779L98.3022 34.8525L98.2005 34.9021L97.4595 35.7274L97.5611 35.6779Z" fill="#FFF75A"/>
<path d="M83.8155 39.9458C83.8998 39.9235 83.9047 39.869 83.8874 39.7996C83.8626 39.8095 83.8502 39.4402 83.8477 39.2742C83.8279 39.408 83.8056 39.5691 83.7783 39.7451C83.7709 39.8095 83.7759 39.8814 83.813 39.9458H83.8155Z" fill="#FFF75A"/>
<path d="M20.2076 15.4807L20.6785 14.5612L21.1543 13.6491L21.3923 13.203L21.7963 12.4719C22.0813 11.9365 22.3267 11.3887 22.5349 10.836C23.3776 8.62027 23.5981 6.39706 23.0677 4.58032C23.5114 6.15665 23.4445 7.94364 22.7976 10.0454C22.634 10.5684 22.4283 11.1112 22.178 11.6663C22.0516 11.9439 21.9128 12.224 21.7641 12.5066C21.6302 12.7494 21.4914 12.9998 21.3501 13.2526C21.1742 13.5872 20.9932 13.9342 20.8024 14.301C20.614 14.6752 20.4133 15.0644 20.2051 15.4783L20.2076 15.4807Z" fill="#FFF75A"/>
<path d="M86.0682 12.157C86.1301 13.4186 86.1376 14.291 86.1351 15.1734C86.1252 16.0507 86.088 16.9281 85.917 18.1128C86.3433 16.591 86.3631 15.5104 86.3408 14.4918C86.3309 13.9812 86.3061 13.483 86.3061 12.9353C86.3061 12.6602 86.3111 12.3727 86.321 12.0579C86.3309 11.877 86.3284 11.6489 86.3309 11.4283C86.3359 11.2028 86.3433 10.9698 86.3334 10.7269C86.3086 10.9822 86.264 11.235 86.2194 11.4804C86.1772 11.7183 86.1277 11.9885 86.0682 12.1545V12.157Z" fill="#FFF75A"/>
<path d="M87.3274 13.1013C87.1638 13.307 87.1043 12.8063 87.0325 12.2883C87.0126 12.1569 86.9953 12.038 86.9779 11.867C86.9556 11.6984 86.9284 11.5472 86.9036 11.4258C86.854 11.1879 86.8045 11.0788 86.7549 11.2201C86.7747 11.5225 86.8045 11.7852 86.8119 11.9735C86.8168 12.0776 86.8243 12.1222 86.8317 12.1867C86.8392 12.2462 86.8466 12.2982 86.8515 12.3428C86.8813 12.5312 86.9061 12.6229 86.9333 12.7171C86.9854 12.9005 87.0325 13.0715 86.9631 13.8423C87.0895 13.6019 87.206 13.3516 87.3274 13.1013Z" fill="#FFF75A"/>
<path d="M80.7816 22.9682L80.7593 22.7922L80.7444 22.5816L80.7196 22.1726L80.7023 22.4948C80.6998 22.6039 80.6924 22.7327 80.6924 22.8245L80.7791 22.9682H80.7816Z" fill="#FFF75A"/>
<path d="M77.2426 5.70304L77.4979 5.56177C77.079 5.64851 76.6502 5.71296 76.2363 5.82201C76.5684 5.76748 76.908 5.74022 77.2426 5.70304Z" fill="#FFF75A"/>
<path d="M77.7553 5.42297C77.6686 5.46511 77.5843 5.51468 77.4976 5.56177C77.5818 5.51468 77.6686 5.46511 77.7553 5.42297Z" fill="#FFF75A"/>
<path d="M80.2688 21.8777L80.2093 22.1652C80.1895 22.2619 80.1696 22.3585 80.1523 22.47L80.0581 23.0302L80.1448 23.5507L80.187 22.7823L80.2043 22.5568L80.2242 22.3164L80.2713 21.8777H80.2688Z" fill="#FFF75A"/>
<path d="M83.2729 13.2575C83.2853 13.5524 83.2928 13.8523 83.2953 14.1522C83.2953 14.063 83.3523 13.7185 83.377 13.4558C83.3969 13.1931 83.3894 13.0171 83.2729 13.26V13.2575Z" fill="#FFF75A"/>
<path d="M70.0845 8.59296C69.7549 8.83338 69.4203 9.07131 69.103 9.32412L69.2245 9.28199C69.5392 9.02918 69.8763 8.79868 70.2035 8.55579L70.0845 8.59048V8.59296Z" fill="#FFF75A"/>
<path d="M80.923 9.67362C81.0568 9.79755 80.8065 9.80498 80.6157 9.83968C80.4174 9.87438 80.2835 9.90164 80.5884 9.96856C80.8709 9.92395 80.9726 9.89669 80.9949 9.84464C81.0172 9.79259 80.9527 9.73063 80.9255 9.67114L80.923 9.67362Z" fill="#FFF75A"/>
<path d="M69.2099 12.8981C69.0884 12.9848 68.9645 13.084 68.8555 13.1955C68.9967 13.0815 69.1132 12.9823 69.2099 12.8981Z" fill="#FFF75A"/>
<path d="M69.2095 12.8981C69.606 12.6205 70.0571 12.4247 70.2975 12.1868C69.7374 12.4321 69.5738 12.5883 69.2095 12.8981Z" fill="#FFF75A"/>
<path d="M64.922 16.4225L65.2591 16.1399C65.0038 16.5266 65.1476 16.3704 65.3855 16.0358C65.7325 15.7235 65.6631 15.6864 65.673 15.612C65.725 15.5277 65.7746 15.446 65.8316 15.3542C65.7424 15.4732 65.6656 15.5798 65.5986 15.669C65.0484 16.1399 64.7361 16.4522 64.922 16.4225Z" fill="#FFF75A"/>
<path d="M47.8824 28.867C49.0423 27.7492 49.3496 27.4691 49.424 27.655C50.4997 26.5669 50.1056 26.5297 50.6682 25.7986C49.5355 27.1023 49.2381 27.308 47.8799 28.867H47.8824Z" fill="#FFF75A"/>
<path d="M50.668 25.7986C50.7944 25.6524 50.9133 25.5111 51.0596 25.3401C50.8886 25.5235 50.7696 25.6672 50.668 25.7986Z" fill="#FFF75A"/>
<path d="M71.1104 14.0605C70.8997 14.3183 70.6866 14.5612 70.4858 14.8264C70.5726 14.7471 70.6593 14.6703 70.7486 14.5959L71.1104 14.063V14.0605Z" fill="#FFF75A"/>
<path d="M46.1794 30.54C46.395 30.3343 46.7147 29.9799 46.9229 29.851C46.8511 29.6651 45.9687 30.7482 46.1794 30.54Z" fill="#FFF75A"/>
<path d="M53.0273 28.3714C53.2207 28.3243 53.8676 27.5014 54.1823 27.2114C53.7585 27.6526 53.1785 27.7988 53.0273 28.3714Z" fill="#FFF75A"/>
<path d="M43.4951 34.3693C43.7132 34.1661 44.1222 33.9232 44.09 34.1711C44.3328 33.7993 44.5187 33.1574 43.4951 34.3693Z" fill="#FFF75A"/>
<path d="M50.9902 30.5499L51.1935 30.4211L51.8651 29.5214L50.9902 30.5499Z" fill="#FFF75A"/>
<path d="M55.6648 29.385C56.3489 28.297 53.9348 30.5375 55.2559 28.7877C53.2061 30.7309 55.6301 28.8348 54.2124 30.3516C55.0848 29.499 55.6822 29.2338 55.6673 29.385H55.6648Z" fill="#FFF75A"/>
<path d="M54.2101 30.3517C54.0837 30.4756 53.9499 30.6144 53.8086 30.7656C53.9722 30.602 54.1011 30.4682 54.2101 30.3517Z" fill="#FFF75A"/>
<path d="M40.7812 42.0997C40.8928 41.9609 40.9696 41.8544 41.0341 41.7577C40.9424 41.8692 40.8556 41.9832 40.7812 42.0997Z" fill="#FFF75A"/>
<path d="M49.8079 35.3285L50.8836 33.7274C50.1748 34.8031 47.9342 37.0858 48.301 37.1651C49.0743 36.4711 49.8798 35.5144 50.1302 35.0485L49.8055 35.3285H49.8079Z" fill="#FFF75A"/>
<path d="M31.3432 44.7269C31.4473 44.655 31.5489 44.5732 31.6505 44.4865C31.5737 44.5162 31.5018 44.5261 31.4274 44.5509L31.2192 44.5905C31.3506 44.6079 31.1895 44.8979 31.3432 44.7269Z" fill="#FFF75A"/>
<path d="M31.1548 44.5956C31.1548 44.5956 31.1994 44.5907 31.2192 44.5907C31.2068 44.5832 31.1597 44.5907 31.1548 44.5956Z" fill="#FFF75A"/>
<path d="M43.2476 39.5172C43.7012 39.1082 44.0432 38.7588 44.3977 38.3275C44.1919 38.4465 43.0667 39.4701 43.2476 39.5172Z" fill="#FFF75A"/>
<path d="M30.1958 44.9599C30.2627 45.0342 30.3643 45.0764 30.4635 45.0937C30.3643 45.064 30.2677 45.0045 30.2156 44.9153L30.1958 44.9599Z" fill="#FFF75A"/>
<path d="M31.4004 42.6202L31.5342 42.469C31.616 42.1716 31.7424 41.8643 31.8465 41.5619L31.7028 41.718L31.5392 42.1741L31.4004 42.6227V42.6202Z" fill="#FFF75A"/>
<path d="M27.0554 50.3928C27.219 50.4597 27.3801 50.5217 27.5362 50.5787C27.6924 50.6357 27.8584 50.658 28.0072 50.6927C28.1583 50.7224 28.2996 50.7472 28.431 50.7645C28.5648 50.7745 28.6887 50.7794 28.7953 50.7819C29.0109 50.7868 29.1696 50.7745 29.2514 50.7546C29.3356 50.7274 29.3406 50.7001 29.2563 50.6728C28.3591 50.5365 27.4941 50.2738 26.7134 49.907C26.9216 50.1623 27.1124 50.2193 27.3974 50.3035C27.5437 50.3432 27.7097 50.4002 27.9477 50.4448C28.1831 50.4944 28.4657 50.5836 28.8523 50.6654C28.5475 50.6555 28.25 50.6158 27.9477 50.5737C27.6379 50.544 27.3553 50.4597 27.0554 50.3928Z" fill="#FFF75A"/>
<path d="M43.9516 0.845156C44.2812 0.671662 45.2949 0.465946 46.1921 0.587393C47.0992 0.684054 47.8577 1.09053 47.8899 1.20454C47.6866 1.13514 47.1662 0.991387 46.8217 0.961645C46.4722 0.936861 46.3136 0.951732 46.8093 1.09548C47.2232 1.11779 47.6445 1.18223 48.0485 1.31111C48.4575 1.4276 48.8491 1.60358 49.2184 1.82168C49.8231 2.43387 49.895 2.7189 49.7909 2.67676C49.6794 2.64207 49.3324 2.3273 48.8168 2.00013C48.5566 1.83903 48.2567 1.6705 47.9221 1.54905C47.5949 1.41025 47.238 1.32103 46.896 1.26154C46.2045 1.14505 45.5551 1.20206 45.1635 1.26898C45.9616 1.22437 46.611 1.30616 47.1786 1.46726C47.7461 1.62836 48.2319 1.8539 48.6706 2.15628C49.1118 2.45618 49.5083 2.83043 49.8875 3.32861C50.2593 3.83174 50.6063 4.47367 50.8616 5.3461C50.589 4.30514 50.3386 3.66568 50.0883 3.14024C50.1577 2.98658 50.703 3.61364 51.1119 4.73392C51.2135 5.01151 51.3077 5.32132 51.3821 5.64848C51.4242 5.80958 51.454 5.9806 51.4862 6.15162C51.5184 6.32263 51.5258 6.50108 51.5481 6.67954C51.5853 7.03396 51.62 7.39086 51.6572 7.74033C51.6696 7.9163 51.6696 8.08732 51.6721 8.25586C51.6721 8.38226 51.677 8.50619 51.6795 8.62763C51.6944 8.47397 51.7068 8.36739 51.7216 8.2509C51.7365 8.11954 51.7489 8.02536 51.7613 7.96092C51.7886 7.83451 51.8158 7.83204 51.848 7.92374C51.8629 7.97083 51.8803 8.03775 51.8951 8.12698C51.9026 8.17159 51.91 8.21868 51.9174 8.27321C51.9249 8.31286 51.9323 8.355 51.9397 8.39961C51.967 8.57063 52.0091 8.78378 52.0215 9.00684C52.0215 9.16794 52.0339 9.27452 52.0488 9.35135C52.0562 9.45545 52.0637 9.55459 52.0736 9.65869L52.086 9.42571C52.1182 9.44306 52.1603 9.39597 52.2223 9.22991C52.2223 9.02419 52.2297 8.82591 52.2223 8.63259C52.2223 8.40705 52.2223 8.19142 52.2223 7.97827C52.2272 7.71802 52.2 7.45778 52.1826 7.20993C52.1653 6.9596 52.1504 6.71671 52.1355 6.47878C52.0885 5.52456 51.8902 4.69674 51.6076 4.00772C51.6448 4.40923 51.5333 4.31257 51.3375 3.94328C51.1318 3.58142 50.817 2.94444 50.3138 2.33473C49.8231 1.71759 49.139 1.12027 48.4178 0.758409C47.7065 0.371764 46.9951 0.228011 46.5589 0.200747C45.8897 0.118957 45.2057 0.143742 44.5166 0.267667C44.2589 0.304844 43.9986 0.36185 43.7409 0.423812C43.6616 0.416376 43.674 0.381678 43.8574 0.302366C44.0408 0.223054 44.3977 0.0966505 45.0024 -0.00744629C44.7496 0.0396451 44.3506 0.104086 43.8995 0.220575C43.4459 0.337065 42.9502 0.49321 42.4868 0.676618C42.2513 0.77328 42.0258 0.864984 41.825 0.946774C41.7234 0.988909 41.6292 1.02856 41.5425 1.06574C41.4929 1.09053 41.4483 1.11283 41.4061 1.13266C41.2475 1.21445 41.1682 1.27146 41.2277 1.29129C39.7728 1.89604 38.365 2.58506 37.0291 3.36083C36.8903 3.41288 36.759 3.4674 36.6499 3.49467C36.5285 3.60372 36.5185 3.63842 36.5483 3.64833C35.1058 4.50342 33.755 5.45516 32.4612 6.43912C31.1675 7.42556 29.9357 8.45166 28.7559 9.50006C27.5737 10.546 26.4335 11.6068 25.3207 12.6651L22.0317 15.8054C22.7009 15.2229 23.3379 14.7644 24.0443 14.1646C23.2561 15.3518 25.1819 13.1583 25.0952 13.6565C24.7135 14.1695 24.0319 14.7718 23.5882 15.094C23.5461 15.3419 24.1979 14.9057 24.2574 15.099C26.0519 13.6565 25.8015 12.8807 27.5588 11.4085C27.6158 11.6043 27.1994 12.1967 28.2899 11.1681L28.0322 11.4531C28.8575 10.5708 29.2764 10.3328 29.5936 10.1469C29.9109 9.96106 30.1042 9.81483 30.5355 9.13324L30.6743 9.35879C31.3732 8.48388 33.0858 7.1331 34.0797 6.38707L34.05 6.47134C34.3821 6.18879 34.6547 5.95581 34.8902 5.76745C35.1306 5.58404 35.3239 5.43533 35.4875 5.31141C35.8196 5.06603 36.0303 4.91732 36.2707 4.77853C36.749 4.50094 37.2497 4.17625 39.0045 3.19229C38.7467 3.37074 38.5013 3.56407 38.2609 3.75739L37.5347 4.33488C38.1643 4.05729 38.5038 3.80696 38.8037 3.57646C39.1086 3.35339 39.3688 3.14024 39.8224 2.93453C39.7802 3.01136 40.0678 3.08324 39.2548 3.53928C39.5993 3.32861 39.9389 3.10554 40.2908 2.90231L41.3615 2.30499C41.54 2.20089 41.7259 2.1191 41.9142 2.02492L42.8065 1.62588C43.3889 1.37803 43.9887 1.1624 44.5935 1.02856C45.0272 0.912076 45.228 0.87242 45.2751 0.840199C45.3222 0.810457 45.2181 0.790629 45.047 0.785672C44.7075 0.770801 44.0978 0.860027 43.954 0.842678L43.9516 0.845156Z" fill="#FFF75A"/>
<path d="M50.8613 5.35107C50.9506 5.73276 51.067 6.16402 51.1191 6.6969C51.0844 6.17641 50.9704 5.75259 50.8613 5.35107Z" fill="#FFF75A"/>
<path d="M21.3623 16.4424L21.3871 16.4176L21.573 16.2416L22.0291 15.8079C21.8828 15.9367 21.7316 16.0706 21.5804 16.2119C21.5135 16.2763 21.4466 16.3407 21.3772 16.4077C21.3698 16.4176 21.3648 16.43 21.3599 16.4424H21.3623Z" fill="#FFF75A"/>
<path d="M50.8241 14.0358C51.2727 13.1857 50.7671 14.7769 50.777 14.9553C51.2058 13.9119 51.5652 12.799 51.8006 11.6292C51.699 11.6242 51.6519 11.2574 51.5478 11.3119C51.4735 11.7903 51.352 12.2438 51.2405 12.7073C51.1091 13.1559 50.9802 13.6095 50.8216 14.0407L50.8241 14.0358Z" fill="#FFF75A"/>
<path d="M52.1651 10.6229C52.1056 10.489 52.1056 10.0999 52.0734 9.6637C52.0238 10.3279 51.9321 10.9847 51.8032 11.6267C51.8726 11.6267 52.0015 11.4309 52.1651 10.6229Z" fill="#FFF75A"/>
<path d="M46.8042 10.1569C46.829 10.0156 46.8339 9.87185 46.8513 9.7281V9.40342L46.829 9.07874C46.8488 9.43564 46.8215 9.79502 46.8042 10.1569Z" fill="#FFF75A"/>
<path d="M45.4981 5.03629C45.6865 5.13791 45.9789 5.23457 46.2268 5.38576C46.4746 5.53447 46.6729 5.72036 46.7646 5.8195C46.482 5.43285 46.3532 5.36345 46.2466 5.26927C46.1871 5.23209 46.1276 5.185 46.0186 5.14287C45.912 5.09578 45.7509 5.04621 45.4956 5.03381L45.4981 5.03629Z" fill="#FFF75A"/>
<path d="M45.3542 7.08609C45.2352 7.01174 45.0939 6.9696 44.9526 6.9696L44.9725 7.01174C45.1038 7.00678 45.2352 7.02909 45.3517 7.08609H45.3542Z" fill="#FFF75A"/>
<path d="M19.4418 19.434C19.3774 19.4934 19.3154 19.548 19.251 19.6075C19.3278 19.548 19.3873 19.491 19.4418 19.434Z" fill="#FFF75A"/>
<path d="M22.4875 16.4522C22.1975 16.6778 21.9992 16.8215 21.8728 16.9033C21.8084 16.9256 21.7935 16.9083 21.7786 16.8909C21.7737 16.881 21.7712 16.8711 21.7712 16.8562C21.7712 16.8488 21.7712 16.8413 21.7737 16.8339C21.7737 16.8289 21.7737 16.8265 21.7786 16.8215C21.7886 16.8091 21.796 16.7992 21.8059 16.7868C21.8827 16.6877 21.9918 16.5637 22.1132 16.425C22.5916 15.8747 23.2509 15.1337 22.7849 15.3171L21.7167 16.5018L21.7464 16.3357L21.5729 16.5043L21.5159 16.5613L21.5035 16.5761L21.454 16.6331L21.3523 16.7521C21.4688 16.881 21.5308 16.8364 21.6052 17.0148C21.3523 17.2007 21.3102 17.1635 21.2755 17.0966C21.2458 17.0223 21.2086 16.933 21.1045 16.8686C21.0054 16.9727 20.8988 17.0793 20.7823 17.1883L20.8368 17.0694C20.8096 17.0966 20.7873 17.1487 20.76 17.2106C20.5617 17.394 20.3461 17.5874 20.1106 17.7956C19.8752 17.9938 19.5852 18.1996 19.2481 18.2466C18.9011 18.4524 18.6954 18.6928 18.507 19.0001C18.3088 19.2951 18.1427 19.642 17.5801 20.0336C17.7461 20.051 17.8998 20.0733 18.0584 20.0659C18.2146 20.0609 18.3658 20.0188 18.5194 19.9419C18.8243 19.7833 19.1093 19.4983 19.3968 19.0249C19.3076 19.1637 19.1143 19.4512 19.1614 19.4809C19.4117 19.1513 19.6372 18.8341 19.838 18.5391C19.8033 18.5242 19.7735 18.5019 19.7488 18.4747C20.0809 18.0137 20.3139 17.7435 20.4799 17.6221C20.6435 17.5006 20.7699 17.4808 20.8021 17.5775C20.6014 17.8154 20.475 18.0732 20.3411 18.2888C20.2742 18.3954 20.1998 18.4945 20.1081 18.5763C20.0164 18.6581 19.9024 18.7225 19.7859 18.7473C19.7041 18.9406 19.6868 19.1761 19.4389 19.4413C20.004 18.9357 20.4452 18.611 20.9013 18.1971C21.1268 17.9938 21.3499 17.7782 21.5556 17.5452C21.6597 17.4287 21.7588 17.3123 21.848 17.1908L21.915 17.1016L21.9472 17.057L21.9645 17.0347L22.0215 16.9727C22.1752 16.8042 22.3289 16.6331 22.4875 16.4621V16.4522Z" fill="#FFF75A"/>
<path d="M19.8257 15.5897L19.8505 15.6145C19.8505 15.5798 19.843 15.5649 19.8257 15.5897Z" fill="#FFF75A"/>
<path d="M19.5801 15.9516C19.6073 16.1449 19.6594 16.2911 19.7337 16.3903C19.8428 16.187 19.9494 15.9739 20.0584 15.7558C19.989 15.7112 19.9172 15.669 19.8527 15.6145C19.8651 15.726 19.8676 15.9863 19.704 16.0755C19.6594 16.0383 19.6197 15.9962 19.5801 15.9516Z" fill="#FFF75A"/>
<path d="M19.7786 16.6952C19.7736 16.5291 19.4019 16.596 19.0574 16.9009C19.0821 16.7497 19.2234 16.6555 19.3201 16.6059C19.4192 16.5489 19.4713 16.5316 19.3473 16.4448C19.211 16.4721 19.1069 16.6109 19.0301 16.7472C18.9557 16.886 18.9161 17.0099 18.9111 17.0496C19.1962 16.938 19.4861 16.8216 19.7786 16.6976V16.6952Z" fill="#FFF75A"/>
<path d="M17.8724 18.74L17.5106 18.9531C17.4437 19.0622 17.3916 19.1886 17.3916 19.3076C17.5354 19.1142 17.6989 18.9234 17.87 18.7425L17.8724 18.74Z" fill="#FFF75A"/>
<path d="M17.5132 18.9531C17.5801 18.8416 17.6619 18.74 17.7462 18.6433C17.4587 18.8664 17.1762 19.0894 16.9556 19.2778L17.5132 18.9531Z" fill="#FFF75A"/>
<path d="M18.4131 17.9642C18.5197 17.8725 18.6386 17.7733 18.7849 17.6494C18.6634 17.7486 18.5395 17.8527 18.4131 17.9642Z" fill="#FFF75A"/>
<path d="M18.0088 18.3161L18.1228 18.2318C18.2195 18.1376 18.3161 18.0484 18.4128 17.9641C18.2814 18.0756 18.1476 18.1897 18.0088 18.3161Z" fill="#FFF75A"/>
<path d="M17.7437 18.6432C18.0708 18.388 18.4054 18.1277 18.6508 17.927C18.9011 17.7262 19.0523 17.5899 19.0573 17.5552L18.1229 18.2318C17.994 18.3607 17.8651 18.4945 17.7437 18.6432Z" fill="#FFF75A"/>
<path d="M40.2039 8.51368C39.9188 8.707 39.6487 8.93254 39.3711 9.14321L39.4801 9.11347C39.7553 8.90032 40.0279 8.68221 40.3129 8.48889L40.2014 8.51368H40.2039Z" fill="#FFF75A"/>
<path d="M35.0905 11.8051C34.9071 11.9984 34.7732 12.1545 34.6567 12.2983C34.86 12.1074 35.0112 11.9414 35.0905 11.8051Z" fill="#FFF75A"/>
<path d="M32.5058 15.8623C31.4252 16.5612 33.6236 14.4818 31.8168 15.9986C31.5318 15.9986 32.1836 15.0617 33.0784 14.4C33.1304 14.5883 32.3497 15.203 32.9792 14.8858C33.3907 14.2488 33.6955 14.172 33.3237 14.1348C33.7302 13.6614 33.9334 13.3764 34.0995 13.1186C34.2656 12.8633 34.3895 12.6279 34.6572 12.2982C34.1193 12.8137 33.2122 13.53 32.2952 14.3331C31.3781 15.1386 30.4512 16.0209 29.8662 16.814C29.3135 17.7831 30.0918 17.6642 30.414 18.0111C30.5106 17.9988 31.0683 17.5254 31.5838 17.0297C32.0994 16.534 32.5752 16.0085 32.5083 15.8623H32.5058Z" fill="#FFF75A"/>
<path d="M34.2979 14.9007C34.7465 14.5339 34.8704 14.4199 35.1108 14.1597C34.9348 14.1002 34.6424 14.5835 34.2979 14.9007Z" fill="#FFF75A"/>
<path d="M21.4617 21.957C21.3774 22.1255 20.4306 23.045 20.619 23.0326C21.1122 22.5815 21.5955 22.1205 22.0689 21.6595C21.7293 21.9471 21.6005 21.952 21.4617 21.957Z" fill="#FFF75A"/>
<path d="M22.686 21.0548L22.0688 21.6596C22.2275 21.5257 22.4208 21.3374 22.686 21.0548Z" fill="#FFF75A"/>
<path d="M21.3921 21.9619C21.4144 21.9619 21.4342 21.9619 21.4615 21.957C21.4788 21.9223 21.4739 21.9074 21.3921 21.9619Z" fill="#FFF75A"/>
<path d="M19.3744 17.1486C19.6247 16.9999 19.5702 16.9851 19.5578 16.9553C19.4983 17.0148 19.3546 17.1363 19.3744 17.1486Z" fill="#FFF75A"/>
<path d="M10.2859 5.15527L9.71338 5.51713C9.93149 5.40808 10.043 5.35107 10.2859 5.15527Z" fill="#FFF75A"/>
<path d="M5.28684 14.6951C5.29179 14.7273 5.27197 14.7744 5.23975 14.8363C5.27445 14.7793 5.29179 14.7322 5.28684 14.6951Z" fill="#FFF75A"/>
<path d="M5.24224 14.8339C5.00431 15.223 3.92616 16.0929 3.70557 16.5639L3.71301 16.4845L3.15039 17.2182C3.72788 16.5787 4.99935 15.2973 5.24224 14.8339Z" fill="#FFF75A"/>
</g>
<defs>
<clipPath id="clip0_94_5499">
<rect width="110.241" height="51" fill="white"/>
</clipPath>
</defs>
</svg>
