<svg width="50" height="50" viewBox="0 0 50 50" fill="none" xmlns="http://www.w3.org/2000/svg">
<circle cx="29.5" cy="20.5" r="17.5" fill="#FFF642"/>
<path d="M39.2579 16.4062C38.9718 20.3779 36.0255 23.4375 32.8126 23.4375C29.5997 23.4375 26.6485 20.3789 26.3673 16.4062C26.0743 12.2744 28.9425 9.375 32.8126 9.375C36.6827 9.375 39.5509 12.3496 39.2579 16.4062Z" stroke="black" stroke-linecap="round" stroke-linejoin="round"/>
<path d="M32.8126 29.6875C26.4483 29.6875 20.3282 32.8486 18.795 39.0049C18.5919 39.8193 19.1026 40.625 19.9396 40.625H45.6866C46.5235 40.625 47.0313 39.8193 46.8312 39.0049C45.298 32.75 39.1778 29.6875 32.8126 29.6875Z" stroke="black" stroke-miterlimit="10"/>
<path d="M19.5313 18.1582C19.3028 21.3301 16.922 23.8281 14.3555 23.8281C11.7891 23.8281 9.40437 21.3311 9.17977 18.1582C8.94637 14.8584 11.2637 12.5 14.3555 12.5C17.4473 12.5 19.7647 14.9189 19.5313 18.1582Z" stroke="black" stroke-linecap="round" stroke-linejoin="round"/>
<path d="M20.1172 29.8828C18.3545 29.0752 16.4131 28.7646 14.3554 28.7646C9.27732 28.7646 4.38474 31.2891 3.15916 36.2061C2.99803 36.8564 3.40623 37.5 4.0742 37.5H15.039" stroke="black" stroke-miterlimit="10" stroke-linecap="round"/>
</svg>
