<svg width="50" height="50" viewBox="0 0 50 50" fill="none" xmlns="http://www.w3.org/2000/svg">
<circle cx="28.5" cy="27.5" r="15.5" fill="#FFF642"/>
<path d="M5.729 42.4011L23.8082 7.599C29.0844 10.3401 33.6684 14.245 37.2134 19.0184C40.7584 23.7918 43.1716 29.3088 44.2707 35.1521L5.729 42.4011Z" stroke="black" stroke-width="0.5" stroke-linecap="round" stroke-linejoin="round"/>
<path d="M28.3304 35.0791C29.4637 35.0791 30.3825 34.1604 30.3825 33.0271C30.3825 31.8937 29.4637 30.975 28.3304 30.975C27.1971 30.975 26.2783 31.8937 26.2783 33.0271C26.2783 34.1604 27.1971 35.0791 28.3304 35.0791Z" stroke="black" stroke-width="0.5" stroke-linecap="round" stroke-linejoin="round"/>
<path d="M24.1397 25.3437C26.1124 25.3437 27.7116 23.7445 27.7116 21.7718C27.7116 19.7991 26.1124 18.2 24.1397 18.2C22.1671 18.2 20.5679 19.7991 20.5679 21.7718C20.5679 23.7445 22.1671 25.3437 24.1397 25.3437Z" stroke="black" stroke-width="0.5" stroke-linecap="round" stroke-linejoin="round"/>
<path d="M16.1144 36.6521C17.2374 36.6521 18.1477 35.7418 18.1477 34.6188C18.1477 33.4958 17.2374 32.5854 16.1144 32.5854C14.9914 32.5854 14.0811 33.4958 14.0811 34.6188C14.0811 35.7418 14.9914 36.6521 16.1144 36.6521Z" stroke="black" stroke-width="0.5" stroke-linecap="round" stroke-linejoin="round"/>
<path d="M22.0269 11.0458C26.704 13.7159 30.7732 17.3317 33.9748 21.6624C37.111 25.9031 39.368 30.7278 40.6133 35.8531" stroke="black" stroke-width="0.5" stroke-linecap="round" stroke-linejoin="round"/>
</svg>
