<svg width="50" height="50" viewBox="0 0 50 50" fill="none" xmlns="http://www.w3.org/2000/svg">
<circle cx="31.5" cy="19.5" r="15.5" fill="#FFF642"/>
<path d="M44.1962 21.6572H5.82023C5.54823 21.6572 5.32812 21.8773 5.32812 22.1493V22.8226C5.32812 32.2945 8.39326 37.3187 15.5361 39.556L15.5365 44.1875C15.5365 44.4591 15.7566 44.6796 16.0286 44.6796H33.9886C34.2606 44.6796 34.4807 44.4595 34.4807 44.1875V39.556C41.6237 37.3187 44.6887 32.2948 44.6887 22.8226V22.1493C44.6883 21.8777 44.4682 21.6572 44.1962 21.6572ZM33.497 43.6953H16.5204V39.6926H33.497V43.6953ZM43.705 22.8223C43.705 32.029 40.8684 36.6377 33.9189 38.709H16.1005C9.15011 36.6376 6.31339 32.0291 6.31339 22.8223V22.6411H43.705V22.8223Z" fill="black"/>
<path d="M18.6689 10.3262V16.7891C18.6689 17.0607 18.8891 17.2812 19.161 17.2812C19.433 17.2812 19.6531 17.0611 19.6531 16.7891V10.3262C19.6531 10.0546 19.433 9.83411 19.161 9.83411C18.8891 9.83411 18.6689 10.0546 18.6689 10.3262Z" fill="black"/>
<path d="M24.9999 5.32031C24.7279 5.32031 24.5078 5.54042 24.5078 5.81241V16.79C24.5078 17.0616 24.7279 17.2821 24.9999 17.2821C25.2719 17.2821 25.492 17.0619 25.492 16.79L25.4916 5.81241C25.4916 5.54081 25.2719 5.32069 24.9999 5.32069V5.32031Z" fill="black"/>
<path d="M30.3467 10.3262V16.7891C30.3467 17.0607 30.5668 17.2812 30.8388 17.2812C31.1108 17.2812 31.3309 17.0611 31.3309 16.7891L31.3305 10.3262C31.3305 10.0546 31.1104 9.83411 30.8384 9.83411C30.5664 9.83411 30.3467 10.0546 30.3467 10.3262Z" fill="black"/>
</svg>
