<svg width="114" height="98" viewBox="0 0 114 98" fill="none" xmlns="http://www.w3.org/2000/svg">
<circle cx="67.2896" cy="50.3552" r="44.2896" fill="#FFF642"/>
<path d="M100.979 46.9346H3.02057C2.456 46.9346 2 46.4786 2 45.914V34.4986C2 33.934 2.456 33.478 3.02057 33.478H100.979C101.544 33.478 102 33.934 102 34.4986V45.914C102 46.4786 101.544 46.9346 100.979 46.9346ZM4.04113 44.8935H99.9589V35.5192H4.04113V44.8935Z" fill="black"/>
<path d="M100.98 35.606H3.02069C2.60502 35.606 2.23278 35.3547 2.07457 34.967C1.91947 34.5823 2.01253 34.1418 2.31033 33.8533L24.0369 12.7751C24.2261 12.5889 24.4836 12.4866 24.7473 12.4866H79.2499C79.5135 12.4866 79.771 12.5889 79.9602 12.7751L101.687 33.8533C101.985 34.1418 102.078 34.5823 101.923 34.967C101.767 35.3547 101.392 35.606 100.976 35.606H100.98ZM5.53644 33.5648H98.4607L78.8373 14.5277H25.163L5.53644 33.5648Z" fill="black"/>
<path d="M95.1135 89.8418H88.4318C86.6667 89.8418 85.2305 88.4055 85.2305 86.6405V45.914C85.2305 45.3494 85.6865 44.8934 86.251 44.8934H97.2973C97.8619 44.8934 98.3179 45.3494 98.3179 45.914V86.6374C98.3179 88.4024 96.8817 89.8387 95.1135 89.8387V89.8418ZM87.2685 46.9346V86.6374C87.2685 87.2764 87.7896 87.8006 88.4318 87.8006H95.1135C95.7556 87.8006 96.2768 87.2795 96.2768 86.6374V46.9346H87.2716H87.2685Z" fill="black"/>
<path d="M77.435 75.2002H70.7532C68.9851 75.2002 67.5488 73.764 67.5488 71.9958V45.914C67.5488 45.3494 68.0048 44.8934 68.5694 44.8934H79.6188C80.1834 44.8934 80.6394 45.3494 80.6394 45.914V71.9958C80.6394 73.764 79.2031 75.2002 77.435 75.2002ZM69.5931 46.9346V71.9958C69.5931 72.6379 70.1142 73.1591 70.7563 73.1591H77.4381C78.0802 73.1591 78.6013 72.6379 78.6013 71.9958V46.9346H69.5931Z" fill="black"/>
<path d="M15.5683 89.8418H8.88652C7.11837 89.8418 5.68213 88.4055 5.68213 86.6405V45.914C5.68213 45.3494 6.13813 44.8934 6.7027 44.8934H17.749C18.3136 44.8934 18.7696 45.3494 18.7696 45.914V86.6374C18.7696 88.4024 17.3333 89.8387 15.5683 89.8387V89.8418ZM7.72326 46.9346V86.6374C7.72326 87.2764 8.2444 87.8006 8.88652 87.8006H15.5683C16.2104 87.8006 16.7315 87.2795 16.7315 86.6374V46.9346H7.72636H7.72326Z" fill="black"/>
<path d="M33.2434 75.2002H26.5616C24.7966 75.2002 23.3604 73.764 23.3604 71.9958V45.914C23.3604 45.3494 23.8163 44.8934 24.3809 44.8934H35.4303C35.9949 44.8934 36.4509 45.3494 36.4509 45.914V71.9958C36.4509 73.764 35.0147 75.2002 33.2465 75.2002H33.2434ZM25.4015 46.9346V71.9958C25.4015 72.6379 25.9226 73.1591 26.5647 73.1591H33.2465C33.8886 73.1591 34.4098 72.6379 34.4098 71.9958V46.9346H25.4015Z" fill="black"/>
</svg>
