<svg width="48" height="40" viewBox="0 0 48 40" fill="none" xmlns="http://www.w3.org/2000/svg">
<circle cx="33.5" cy="19.5" r="14.5" fill="#FFF642"/>
<path d="M39.2197 10.9687C39.3593 10.9687 39.4931 10.9128 39.5918 10.8131C39.6905 10.7135 39.746 10.5784 39.746 10.4375V8.66842C39.7454 8.20702 39.5636 7.76467 39.2404 7.43841C38.9171 7.11215 38.4789 6.92861 38.0218 6.92805H35.1934L34.5481 5.00598C34.5042 4.87527 34.4117 4.76691 34.2901 4.70385C34.1685 4.64079 34.0273 4.62797 33.8965 4.66811L18.5776 9.36861C18.4508 9.4153 18.3466 9.50929 18.2863 9.63121C18.2261 9.75314 18.2145 9.89372 18.2539 10.024C18.2933 10.1543 18.3807 10.2644 18.4981 10.3317C18.6155 10.3989 18.7539 10.4181 18.8849 10.3854L33.7155 5.83367L35.1292 10.0465C35.174 10.1799 35.2694 10.2899 35.3946 10.3523C35.5198 10.4146 35.6643 10.4243 35.7965 10.379C35.9287 10.3338 36.0377 10.2374 36.0995 10.1111C36.1613 9.98478 36.1708 9.83885 36.126 9.70542L35.5502 7.98948H38.0228C38.3934 7.98948 38.6944 8.29336 38.6944 8.66736V10.4375C38.6934 10.7307 38.9292 10.9687 39.2197 10.9687Z" fill="black"/>
<path d="M43.4211 18.9373C43.2815 18.9373 43.1476 18.9932 43.0489 19.0929C42.9502 19.1925 42.8947 19.3276 42.8947 19.4685C42.8947 19.6094 42.9502 19.7445 43.0489 19.8442C43.1476 19.9438 43.2815 19.9998 43.4211 19.9998C43.7905 19.9998 43.9474 20.1581 43.9474 20.531V26.906C43.9474 27.279 43.7905 27.4373 43.4211 27.4373H35C34.6305 27.4373 34.4737 27.279 34.4737 26.906V21.5935C34.4737 21.2206 34.6305 21.0623 35 21.0623H41.3158C41.4554 21.0623 41.5892 21.0063 41.688 20.9067C41.7867 20.807 41.8421 20.6719 41.8421 20.531V14.156C41.8421 13.1881 41.2221 12.5623 40.2632 12.5623H8.15789C6.86 12.5623 6.05263 11.7473 6.05263 10.4373C6.05263 9.1272 6.86 8.31227 8.15789 8.31227H13.5011L10.3158 9.37264C10.2478 9.39244 10.1844 9.42589 10.1295 9.47098C10.0746 9.51607 10.0292 9.57189 9.99618 9.63508C9.96314 9.69827 9.94306 9.76754 9.93715 9.83875C9.93124 9.90995 9.93962 9.98163 9.96179 10.0495C9.98397 10.1174 10.0195 10.18 10.0662 10.2337C10.1129 10.2874 10.1699 10.331 10.2337 10.3619C10.2975 10.3929 10.3668 10.4105 10.4376 10.4138C10.5083 10.4171 10.5789 10.4059 10.6453 10.381L29.7179 4.03464C29.7836 4.01274 29.8443 3.97799 29.8967 3.93239C29.949 3.88679 29.992 3.83122 30.023 3.76887C30.0541 3.70651 30.0727 3.63859 30.0778 3.56898C30.0829 3.49936 30.0743 3.42942 30.0526 3.36314C30.0309 3.29687 29.9965 3.23555 29.9513 3.1827C29.9062 3.12986 29.8511 3.08651 29.7893 3.05513C29.7276 3.02376 29.6603 3.00497 29.5913 2.99985C29.5223 2.99472 29.453 3.00336 29.3874 3.02527L16.6505 7.26464C16.6263 7.26039 16.6042 7.24977 16.5789 7.24977H8.15789C6.26947 7.24977 5 8.53114 5 10.4373V33.8123C5 35.7184 6.26947 36.9998 8.15789 36.9998H40.2632C41.2221 36.9998 41.8421 36.374 41.8421 35.406V30.0935C41.8421 29.9526 41.7867 29.8175 41.688 29.7179C41.5892 29.6182 41.4554 29.5623 41.3158 29.5623C41.1762 29.5623 41.0423 29.6182 40.9436 29.7179C40.8449 29.8175 40.7895 29.9526 40.7895 30.0935V35.406C40.7895 35.779 40.6326 35.9373 40.2632 35.9373H8.15789C6.86 35.9373 6.05263 35.1223 6.05263 33.8123V12.8938C6.59263 13.3538 7.30737 13.6248 8.15789 13.6248H40.2632C40.6326 13.6248 40.7895 13.7831 40.7895 14.156V19.9998H35C34.0411 19.9998 33.4211 20.6256 33.4211 21.5935V26.906C33.4211 27.874 34.0411 28.4998 35 28.4998H43.4211C44.38 28.4998 45 27.874 45 26.906V20.531C45 19.5631 44.38 18.9373 43.4211 18.9373Z" fill="black"/>
<path d="M38.684 25.3126C39.2653 25.3126 39.7366 24.8369 39.7366 24.2501C39.7366 23.6633 39.2653 23.1876 38.684 23.1876C38.1026 23.1876 37.6313 23.6633 37.6313 24.2501C37.6313 24.8369 38.1026 25.3126 38.684 25.3126Z" fill="black"/>
</svg>
